<?xml version="1.0" encoding="utf-8" standalone="no"?>
<!DOCTYPE svg PUBLIC "-//W3C//DTD SVG 1.1//EN"
  "http://www.w3.org/Graphics/SVG/1.1/DTD/svg11.dtd">
<!-- Created with matplotlib (http://matplotlib.org/) -->
<svg height="396pt" version="1.1" viewBox="0 0 576 396" width="576pt" xmlns="http://www.w3.org/2000/svg" xmlns:xlink="http://www.w3.org/1999/xlink">
 <defs>
  <style type="text/css">
*{stroke-linecap:butt;stroke-linejoin:round;}
  </style>
 </defs>
 <g id="figure_1">
  <g id="patch_1">
   <path d="M 0 396 
L 576 396 
L 576 0 
L 0 0 
z
"/>
  </g>
  <g id="axes_1">
   <g id="patch_2">
    <path d="M 72 346.5 
L 518.4 346.5 
L 518.4 47.52 
L 72 47.52 
z
" style="fill:#eaeaf2;"/>
   </g>
   <g id="matplotlib.axis_1">
    <g id="xtick_1">
     <g id="line2d_1">
      <path clip-path="url(#pc58d48cb66)" d="M 92.290909 346.5 
L 92.290909 47.52 
" style="fill:none;stroke:#ffffff;stroke-linecap:round;"/>
     </g>
     <g id="line2d_2"/>
     <g id="text_1">
      <!-- 0 -->
      <defs>
       <path d="M 4.15625 35.296875 
Q 4.15625 48 6.765625 55.734375 
Q 9.375 63.484375 14.515625 67.671875 
Q 19.671875 71.875 27.484375 71.875 
Q 33.25 71.875 37.59375 69.546875 
Q 41.9375 67.234375 44.765625 62.859375 
Q 47.609375 58.5 49.21875 52.21875 
Q 50.828125 45.953125 50.828125 35.296875 
Q 50.828125 22.703125 48.234375 14.96875 
Q 45.65625 7.234375 40.5 3 
Q 35.359375 -1.21875 27.484375 -1.21875 
Q 17.140625 -1.21875 11.234375 6.203125 
Q 4.15625 15.140625 4.15625 35.296875 
z
M 13.1875 35.296875 
Q 13.1875 17.671875 17.3125 11.828125 
Q 21.4375 6 27.484375 6 
Q 33.546875 6 37.671875 11.859375 
Q 41.796875 17.71875 41.796875 35.296875 
Q 41.796875 52.984375 37.671875 58.78125 
Q 33.546875 64.59375 27.390625 64.59375 
Q 21.34375 64.59375 17.71875 59.46875 
Q 13.1875 52.9375 13.1875 35.296875 
z
" id="ArialMT-30"/>
      </defs>
      <g style="fill:#262626;" transform="translate(89.51044 360.657812)scale(0.1 -0.1)">
       <use xlink:href="#ArialMT-30"/>
      </g>
     </g>
    </g>
    <g id="xtick_2">
     <g id="line2d_3">
      <path clip-path="url(#pc58d48cb66)" d="M 143.030867 346.5 
L 143.030867 47.52 
" style="fill:none;stroke:#ffffff;stroke-linecap:round;"/>
     </g>
     <g id="line2d_4"/>
     <g id="text_2">
      <!-- 500 -->
      <defs>
       <path d="M 4.15625 18.75 
L 13.375 19.53125 
Q 14.40625 12.796875 18.140625 9.390625 
Q 21.875 6 27.15625 6 
Q 33.5 6 37.890625 10.78125 
Q 42.28125 15.578125 42.28125 23.484375 
Q 42.28125 31 38.0625 35.34375 
Q 33.84375 39.703125 27 39.703125 
Q 22.75 39.703125 19.328125 37.765625 
Q 15.921875 35.84375 13.96875 32.765625 
L 5.71875 33.84375 
L 12.640625 70.609375 
L 48.25 70.609375 
L 48.25 62.203125 
L 19.671875 62.203125 
L 15.828125 42.96875 
Q 22.265625 47.46875 29.34375 47.46875 
Q 38.71875 47.46875 45.15625 40.96875 
Q 51.609375 34.46875 51.609375 24.265625 
Q 51.609375 14.546875 45.953125 7.46875 
Q 39.0625 -1.21875 27.15625 -1.21875 
Q 17.390625 -1.21875 11.203125 4.25 
Q 5.03125 9.71875 4.15625 18.75 
z
" id="ArialMT-35"/>
      </defs>
      <g style="fill:#262626;" transform="translate(134.689461 360.657812)scale(0.1 -0.1)">
       <use xlink:href="#ArialMT-35"/>
       <use x="55.615234" xlink:href="#ArialMT-30"/>
       <use x="111.230469" xlink:href="#ArialMT-30"/>
      </g>
     </g>
    </g>
    <g id="xtick_3">
     <g id="line2d_5">
      <path clip-path="url(#pc58d48cb66)" d="M 193.770825 346.5 
L 193.770825 47.52 
" style="fill:none;stroke:#ffffff;stroke-linecap:round;"/>
     </g>
     <g id="line2d_6"/>
     <g id="text_3">
      <!-- 1000 -->
      <defs>
       <path d="M 37.25 0 
L 28.46875 0 
L 28.46875 56 
Q 25.296875 52.984375 20.140625 49.953125 
Q 14.984375 46.921875 10.890625 45.40625 
L 10.890625 53.90625 
Q 18.265625 57.375 23.78125 62.296875 
Q 29.296875 67.234375 31.59375 71.875 
L 37.25 71.875 
z
" id="ArialMT-31"/>
      </defs>
      <g style="fill:#262626;" transform="translate(182.64895 360.657812)scale(0.1 -0.1)">
       <use xlink:href="#ArialMT-31"/>
       <use x="55.615234" xlink:href="#ArialMT-30"/>
       <use x="111.230469" xlink:href="#ArialMT-30"/>
       <use x="166.845703" xlink:href="#ArialMT-30"/>
      </g>
     </g>
    </g>
    <g id="xtick_4">
     <g id="line2d_7">
      <path clip-path="url(#pc58d48cb66)" d="M 244.510782 346.5 
L 244.510782 47.52 
" style="fill:none;stroke:#ffffff;stroke-linecap:round;"/>
     </g>
     <g id="line2d_8"/>
     <g id="text_4">
      <!-- 1500 -->
      <g style="fill:#262626;" transform="translate(233.388907 360.657812)scale(0.1 -0.1)">
       <use xlink:href="#ArialMT-31"/>
       <use x="55.615234" xlink:href="#ArialMT-35"/>
       <use x="111.230469" xlink:href="#ArialMT-30"/>
       <use x="166.845703" xlink:href="#ArialMT-30"/>
      </g>
     </g>
    </g>
    <g id="xtick_5">
     <g id="line2d_9">
      <path clip-path="url(#pc58d48cb66)" d="M 295.25074 346.5 
L 295.25074 47.52 
" style="fill:none;stroke:#ffffff;stroke-linecap:round;"/>
     </g>
     <g id="line2d_10"/>
     <g id="text_5">
      <!-- 2000 -->
      <defs>
       <path d="M 50.34375 8.453125 
L 50.34375 0 
L 3.03125 0 
Q 2.9375 3.171875 4.046875 6.109375 
Q 5.859375 10.9375 9.828125 15.625 
Q 13.8125 20.3125 21.34375 26.46875 
Q 33.015625 36.03125 37.109375 41.625 
Q 41.21875 47.21875 41.21875 52.203125 
Q 41.21875 57.421875 37.46875 61 
Q 33.734375 64.59375 27.734375 64.59375 
Q 21.390625 64.59375 17.578125 60.78125 
Q 13.765625 56.984375 13.71875 50.25 
L 4.6875 51.171875 
Q 5.609375 61.28125 11.65625 66.578125 
Q 17.71875 71.875 27.9375 71.875 
Q 38.234375 71.875 44.234375 66.15625 
Q 50.25 60.453125 50.25 52 
Q 50.25 47.703125 48.484375 43.546875 
Q 46.734375 39.40625 42.65625 34.8125 
Q 38.578125 30.21875 29.109375 22.21875 
Q 21.1875 15.578125 18.9375 13.203125 
Q 16.703125 10.84375 15.234375 8.453125 
z
" id="ArialMT-32"/>
      </defs>
      <g style="fill:#262626;" transform="translate(284.128865 360.657812)scale(0.1 -0.1)">
       <use xlink:href="#ArialMT-32"/>
       <use x="55.615234" xlink:href="#ArialMT-30"/>
       <use x="111.230469" xlink:href="#ArialMT-30"/>
       <use x="166.845703" xlink:href="#ArialMT-30"/>
      </g>
     </g>
    </g>
    <g id="xtick_6">
     <g id="line2d_11">
      <path clip-path="url(#pc58d48cb66)" d="M 345.990698 346.5 
L 345.990698 47.52 
" style="fill:none;stroke:#ffffff;stroke-linecap:round;"/>
     </g>
     <g id="line2d_12"/>
     <g id="text_6">
      <!-- 2500 -->
      <g style="fill:#262626;" transform="translate(334.868823 360.657812)scale(0.1 -0.1)">
       <use xlink:href="#ArialMT-32"/>
       <use x="55.615234" xlink:href="#ArialMT-35"/>
       <use x="111.230469" xlink:href="#ArialMT-30"/>
       <use x="166.845703" xlink:href="#ArialMT-30"/>
      </g>
     </g>
    </g>
    <g id="xtick_7">
     <g id="line2d_13">
      <path clip-path="url(#pc58d48cb66)" d="M 396.730655 346.5 
L 396.730655 47.52 
" style="fill:none;stroke:#ffffff;stroke-linecap:round;"/>
     </g>
     <g id="line2d_14"/>
     <g id="text_7">
      <!-- 3000 -->
      <defs>
       <path d="M 4.203125 18.890625 
L 12.984375 20.0625 
Q 14.5 12.59375 18.140625 9.296875 
Q 21.78125 6 27 6 
Q 33.203125 6 37.46875 10.296875 
Q 41.75 14.59375 41.75 20.953125 
Q 41.75 27 37.796875 30.921875 
Q 33.84375 34.859375 27.734375 34.859375 
Q 25.25 34.859375 21.53125 33.890625 
L 22.515625 41.609375 
Q 23.390625 41.5 23.921875 41.5 
Q 29.546875 41.5 34.03125 44.421875 
Q 38.53125 47.359375 38.53125 53.46875 
Q 38.53125 58.296875 35.25 61.46875 
Q 31.984375 64.65625 26.8125 64.65625 
Q 21.6875 64.65625 18.265625 61.421875 
Q 14.84375 58.203125 13.875 51.765625 
L 5.078125 53.328125 
Q 6.6875 62.15625 12.390625 67.015625 
Q 18.109375 71.875 26.609375 71.875 
Q 32.46875 71.875 37.390625 69.359375 
Q 42.328125 66.84375 44.9375 62.5 
Q 47.5625 58.15625 47.5625 53.265625 
Q 47.5625 48.640625 45.0625 44.828125 
Q 42.578125 41.015625 37.703125 38.765625 
Q 44.046875 37.3125 47.5625 32.6875 
Q 51.078125 28.078125 51.078125 21.140625 
Q 51.078125 11.765625 44.234375 5.25 
Q 37.40625 -1.265625 26.953125 -1.265625 
Q 17.53125 -1.265625 11.296875 4.34375 
Q 5.078125 9.96875 4.203125 18.890625 
z
" id="ArialMT-33"/>
      </defs>
      <g style="fill:#262626;" transform="translate(385.60878 360.657812)scale(0.1 -0.1)">
       <use xlink:href="#ArialMT-33"/>
       <use x="55.615234" xlink:href="#ArialMT-30"/>
       <use x="111.230469" xlink:href="#ArialMT-30"/>
       <use x="166.845703" xlink:href="#ArialMT-30"/>
      </g>
     </g>
    </g>
    <g id="xtick_8">
     <g id="line2d_15">
      <path clip-path="url(#pc58d48cb66)" d="M 447.470613 346.5 
L 447.470613 47.52 
" style="fill:none;stroke:#ffffff;stroke-linecap:round;"/>
     </g>
     <g id="line2d_16"/>
     <g id="text_8">
      <!-- 3500 -->
      <g style="fill:#262626;" transform="translate(436.348738 360.657812)scale(0.1 -0.1)">
       <use xlink:href="#ArialMT-33"/>
       <use x="55.615234" xlink:href="#ArialMT-35"/>
       <use x="111.230469" xlink:href="#ArialMT-30"/>
       <use x="166.845703" xlink:href="#ArialMT-30"/>
      </g>
     </g>
    </g>
    <g id="xtick_9">
     <g id="line2d_17">
      <path clip-path="url(#pc58d48cb66)" d="M 498.210571 346.5 
L 498.210571 47.52 
" style="fill:none;stroke:#ffffff;stroke-linecap:round;"/>
     </g>
     <g id="line2d_18"/>
     <g id="text_9">
      <!-- 4000 -->
      <defs>
       <path d="M 32.328125 0 
L 32.328125 17.140625 
L 1.265625 17.140625 
L 1.265625 25.203125 
L 33.9375 71.578125 
L 41.109375 71.578125 
L 41.109375 25.203125 
L 50.78125 25.203125 
L 50.78125 17.140625 
L 41.109375 17.140625 
L 41.109375 0 
z
M 32.328125 25.203125 
L 32.328125 57.46875 
L 9.90625 25.203125 
z
" id="ArialMT-34"/>
      </defs>
      <g style="fill:#262626;" transform="translate(487.088696 360.657812)scale(0.1 -0.1)">
       <use xlink:href="#ArialMT-34"/>
       <use x="55.615234" xlink:href="#ArialMT-30"/>
       <use x="111.230469" xlink:href="#ArialMT-30"/>
       <use x="166.845703" xlink:href="#ArialMT-30"/>
      </g>
     </g>
    </g>
   </g>
   <g id="matplotlib.axis_2">
    <g id="ytick_1">
     <g id="line2d_19">
      <path clip-path="url(#pc58d48cb66)" d="M 72 330.221358 
L 518.4 330.221358 
" style="fill:none;stroke:#ffffff;stroke-linecap:round;"/>
     </g>
     <g id="line2d_20"/>
     <g id="text_10">
      <!-- −1.0 -->
      <defs>
       <path d="M 52.828125 31.203125 
L 5.5625 31.203125 
L 5.5625 39.40625 
L 52.828125 39.40625 
z
" id="ArialMT-2212"/>
       <path d="M 9.078125 0 
L 9.078125 10.015625 
L 19.09375 10.015625 
L 19.09375 0 
z
" id="ArialMT-2e"/>
      </defs>
      <g style="fill:#262626;" transform="translate(45.259375 333.800264)scale(0.1 -0.1)">
       <use xlink:href="#ArialMT-2212"/>
       <use x="58.398438" xlink:href="#ArialMT-31"/>
       <use x="114.013672" xlink:href="#ArialMT-2e"/>
       <use x="141.796875" xlink:href="#ArialMT-30"/>
      </g>
     </g>
    </g>
    <g id="ytick_2">
     <g id="line2d_21">
      <path clip-path="url(#pc58d48cb66)" d="M 72 276.363067 
L 518.4 276.363067 
" style="fill:none;stroke:#ffffff;stroke-linecap:round;"/>
     </g>
     <g id="line2d_22"/>
     <g id="text_11">
      <!-- −0.8 -->
      <defs>
       <path d="M 17.671875 38.8125 
Q 12.203125 40.828125 9.5625 44.53125 
Q 6.9375 48.25 6.9375 53.421875 
Q 6.9375 61.234375 12.546875 66.546875 
Q 18.171875 71.875 27.484375 71.875 
Q 36.859375 71.875 42.578125 66.421875 
Q 48.296875 60.984375 48.296875 53.171875 
Q 48.296875 48.1875 45.671875 44.5 
Q 43.0625 40.828125 37.75 38.8125 
Q 44.34375 36.671875 47.78125 31.875 
Q 51.21875 27.09375 51.21875 20.453125 
Q 51.21875 11.28125 44.71875 5.03125 
Q 38.234375 -1.21875 27.640625 -1.21875 
Q 17.046875 -1.21875 10.546875 5.046875 
Q 4.046875 11.328125 4.046875 20.703125 
Q 4.046875 27.6875 7.59375 32.390625 
Q 11.140625 37.109375 17.671875 38.8125 
z
M 15.921875 53.71875 
Q 15.921875 48.640625 19.1875 45.40625 
Q 22.46875 42.1875 27.6875 42.1875 
Q 32.765625 42.1875 36.015625 45.375 
Q 39.265625 48.578125 39.265625 53.21875 
Q 39.265625 58.0625 35.90625 61.359375 
Q 32.5625 64.65625 27.59375 64.65625 
Q 22.5625 64.65625 19.234375 61.421875 
Q 15.921875 58.203125 15.921875 53.71875 
z
M 13.09375 20.65625 
Q 13.09375 16.890625 14.875 13.375 
Q 16.65625 9.859375 20.171875 7.921875 
Q 23.6875 6 27.734375 6 
Q 34.03125 6 38.125 10.046875 
Q 42.234375 14.109375 42.234375 20.359375 
Q 42.234375 26.703125 38.015625 30.859375 
Q 33.796875 35.015625 27.4375 35.015625 
Q 21.234375 35.015625 17.15625 30.90625 
Q 13.09375 26.8125 13.09375 20.65625 
z
" id="ArialMT-38"/>
      </defs>
      <g style="fill:#262626;" transform="translate(45.259375 279.941973)scale(0.1 -0.1)">
       <use xlink:href="#ArialMT-2212"/>
       <use x="58.398438" xlink:href="#ArialMT-30"/>
       <use x="114.013672" xlink:href="#ArialMT-2e"/>
       <use x="141.796875" xlink:href="#ArialMT-38"/>
      </g>
     </g>
    </g>
    <g id="ytick_3">
     <g id="line2d_23">
      <path clip-path="url(#pc58d48cb66)" d="M 72 222.504776 
L 518.4 222.504776 
" style="fill:none;stroke:#ffffff;stroke-linecap:round;"/>
     </g>
     <g id="line2d_24"/>
     <g id="text_12">
      <!-- −0.6 -->
      <defs>
       <path d="M 49.75 54.046875 
L 41.015625 53.375 
Q 39.84375 58.546875 37.703125 60.890625 
Q 34.125 64.65625 28.90625 64.65625 
Q 24.703125 64.65625 21.53125 62.3125 
Q 17.390625 59.28125 14.984375 53.46875 
Q 12.59375 47.65625 12.5 36.921875 
Q 15.671875 41.75 20.265625 44.09375 
Q 24.859375 46.4375 29.890625 46.4375 
Q 38.671875 46.4375 44.84375 39.96875 
Q 51.03125 33.5 51.03125 23.25 
Q 51.03125 16.5 48.125 10.71875 
Q 45.21875 4.9375 40.140625 1.859375 
Q 35.0625 -1.21875 28.609375 -1.21875 
Q 17.625 -1.21875 10.6875 6.859375 
Q 3.765625 14.9375 3.765625 33.5 
Q 3.765625 54.25 11.421875 63.671875 
Q 18.109375 71.875 29.4375 71.875 
Q 37.890625 71.875 43.28125 67.140625 
Q 48.6875 62.40625 49.75 54.046875 
z
M 13.875 23.1875 
Q 13.875 18.65625 15.796875 14.5 
Q 17.71875 10.359375 21.1875 8.171875 
Q 24.65625 6 28.46875 6 
Q 34.03125 6 38.03125 10.484375 
Q 42.046875 14.984375 42.046875 22.703125 
Q 42.046875 30.125 38.078125 34.390625 
Q 34.125 38.671875 28.125 38.671875 
Q 22.171875 38.671875 18.015625 34.390625 
Q 13.875 30.125 13.875 23.1875 
z
" id="ArialMT-36"/>
      </defs>
      <g style="fill:#262626;" transform="translate(45.259375 226.083682)scale(0.1 -0.1)">
       <use xlink:href="#ArialMT-2212"/>
       <use x="58.398438" xlink:href="#ArialMT-30"/>
       <use x="114.013672" xlink:href="#ArialMT-2e"/>
       <use x="141.796875" xlink:href="#ArialMT-36"/>
      </g>
     </g>
    </g>
    <g id="ytick_4">
     <g id="line2d_25">
      <path clip-path="url(#pc58d48cb66)" d="M 72 168.646485 
L 518.4 168.646485 
" style="fill:none;stroke:#ffffff;stroke-linecap:round;"/>
     </g>
     <g id="line2d_26"/>
     <g id="text_13">
      <!-- −0.4 -->
      <g style="fill:#262626;" transform="translate(45.259375 172.225391)scale(0.1 -0.1)">
       <use xlink:href="#ArialMT-2212"/>
       <use x="58.398438" xlink:href="#ArialMT-30"/>
       <use x="114.013672" xlink:href="#ArialMT-2e"/>
       <use x="141.796875" xlink:href="#ArialMT-34"/>
      </g>
     </g>
    </g>
    <g id="ytick_5">
     <g id="line2d_27">
      <path clip-path="url(#pc58d48cb66)" d="M 72 114.788194 
L 518.4 114.788194 
" style="fill:none;stroke:#ffffff;stroke-linecap:round;"/>
     </g>
     <g id="line2d_28"/>
     <g id="text_14">
      <!-- −0.2 -->
      <g style="fill:#262626;" transform="translate(45.259375 118.367101)scale(0.1 -0.1)">
       <use xlink:href="#ArialMT-2212"/>
       <use x="58.398438" xlink:href="#ArialMT-30"/>
       <use x="114.013672" xlink:href="#ArialMT-2e"/>
       <use x="141.796875" xlink:href="#ArialMT-32"/>
      </g>
     </g>
    </g>
    <g id="ytick_6">
     <g id="line2d_29">
      <path clip-path="url(#pc58d48cb66)" d="M 72 60.929903 
L 518.4 60.929903 
" style="fill:none;stroke:#ffffff;stroke-linecap:round;"/>
     </g>
     <g id="line2d_30"/>
     <g id="text_15">
      <!-- 0.0 -->
      <g style="fill:#262626;" transform="translate(51.1 64.50881)scale(0.1 -0.1)">
       <use xlink:href="#ArialMT-30"/>
       <use x="55.615234" xlink:href="#ArialMT-2e"/>
       <use x="83.398438" xlink:href="#ArialMT-30"/>
      </g>
     </g>
    </g>
   </g>
   <g id="line2d_31">
    <path clip-path="url(#pc58d48cb66)" d="M 92.290909 61.11 
L 92.392389 61.939183 
L 92.493869 63.763808 
L 92.899789 86.906102 
L 93.508668 125.737335 
L 93.610148 124.208837 
L 93.914588 139.694055 
L 94.016068 132.722952 
L 94.117548 145.072648 
L 94.219027 140.240641 
L 94.320507 154.619957 
L 94.421987 152.301354 
L 94.523467 143.931236 
L 94.726427 157.617405 
L 94.827907 154.390483 
L 95.030867 149.701073 
L 95.132347 158.60996 
L 95.335307 153.653958 
L 95.538266 164.952866 
L 95.639746 146.348994 
L 95.842706 161.442114 
L 95.944186 167.899448 
L 96.045666 165.536369 
L 96.350106 170.997351 
L 96.451586 176.117178 
L 96.654545 166.88268 
L 96.857505 173.621188 
L 96.958985 171.84881 
L 97.060465 172.110353 
L 97.161945 182.99789 
L 97.263425 180.608527 
L 97.364905 188.631172 
L 97.466385 171.005152 
L 97.567865 182.282977 
L 97.669345 180.251817 
L 97.770825 165.937893 
L 97.872304 183.394406 
L 98.075264 173.306588 
L 98.176744 176.534336 
L 98.278224 188.367101 
L 98.379704 187.308528 
L 98.481184 197.496472 
L 98.582664 181.156348 
L 98.684144 194.614455 
L 98.785624 193.786905 
L 98.988584 183.538223 
L 99.090063 186.200791 
L 99.191543 198.610477 
L 99.293023 196.349514 
L 99.394503 190.954549 
L 99.495983 178.298873 
L 99.597463 193.722018 
L 99.698943 192.513208 
L 99.901903 201.11617 
L 100.003383 181.939501 
L 100.104863 195.589226 
L 100.307822 193.400846 
L 100.409302 193.492681 
L 100.510782 186.100191 
L 100.612262 199.075443 
L 100.713742 184.435973 
L 100.916702 196.077482 
L 101.018182 172.947382 
L 101.221142 214.805493 
L 101.525581 193.346248 
L 101.627061 194.240715 
L 101.728541 217.983691 
L 101.830021 205.716634 
L 101.931501 212.7995 
L 102.337421 200.333057 
L 102.438901 207.757762 
L 102.540381 190.659403 
L 102.64186 215.927619 
L 102.84482 196.891975 
L 102.9463 226.182328 
L 103.04778 209.077477 
L 103.25074 219.803556 
L 103.35222 211.048783 
L 103.4537 211.295616 
L 103.55518 208.981845 
L 103.65666 219.120762 
L 103.75814 211.521598 
L 103.961099 230.44763 
L 104.062579 207.837824 
L 104.164059 224.329158 
L 104.367019 206.557627 
L 104.468499 198.067439 
L 104.671459 217.316338 
L 104.772939 218.142083 
L 104.874419 205.346561 
L 104.975899 231.140986 
L 105.077378 197.197169 
L 105.381818 226.375631 
L 105.483298 214.187287 
L 105.584778 231.745323 
L 105.787738 225.887535 
L 105.889218 234.027634 
L 105.990698 222.042497 
L 106.092178 235.598548 
L 106.193658 213.294931 
L 106.295137 224.156079 
L 106.396617 221.303347 
L 106.498097 242.423105 
L 106.599577 212.439139 
L 106.701057 245.794397 
L 106.802537 222.45634 
L 107.005497 236.295997 
L 107.208457 217.739106 
L 107.309937 229.900772 
L 107.512896 216.814968 
L 107.614376 223.078992 
L 107.715856 200.353538 
L 107.918816 253.073584 
L 108.020296 220.02055 
L 108.223256 244.890564 
L 108.324736 238.738769 
L 108.426216 219.07988 
L 108.527696 242.646102 
L 108.730655 236.62737 
L 108.832135 220.620071 
L 109.035095 239.289978 
L 109.136575 246.781824 
L 109.339535 224.877059 
L 109.441015 229.266227 
L 109.542495 239.257041 
L 109.643975 211.284926 
L 109.745455 242.871699 
L 109.846934 238.69487 
L 109.948414 212.445126 
L 110.151374 226.484344 
L 110.252854 234.676593 
L 110.354334 218.837862 
L 110.455814 240.212959 
L 110.557294 238.513301 
L 110.658774 248.694512 
L 110.861734 228.727282 
L 111.166173 242.704961 
L 111.267653 243.639435 
L 111.369133 255.55032 
L 111.470613 250.874594 
L 111.673573 226.346305 
L 111.775053 219.969331 
L 111.876533 225.301352 
L 111.978013 251.960044 
L 112.079493 235.043166 
L 112.180973 243.747025 
L 112.282452 224.284985 
L 112.383932 245.796131 
L 112.485412 234.308238 
L 112.586892 236.121426 
L 112.688372 256.712816 
L 112.891332 214.599574 
L 113.094292 252.363197 
L 113.297252 234.203168 
L 113.398732 235.111592 
L 113.500211 242.954667 
L 113.601691 223.660504 
L 113.703171 251.981231 
L 113.804651 238.673217 
L 113.906131 253.882571 
L 114.007611 251.58437 
L 114.109091 246.337869 
L 114.210571 257.236079 
L 114.312051 234.405909 
L 114.413531 237.554044 
L 114.515011 233.54376 
L 114.61649 247.702815 
L 114.71797 244.694999 
L 114.81945 236.433746 
L 114.92093 254.434036 
L 115.02241 238.858751 
L 115.12389 249.872737 
L 115.32685 227.918599 
L 115.42833 245.554659 
L 115.52981 225.78468 
L 115.73277 241.204126 
L 115.935729 259.017502 
L 116.341649 236.761813 
L 116.544609 245.641993 
L 116.646089 268.438857 
L 116.849049 221.675908 
L 116.950529 263.224025 
L 117.052008 244.86286 
L 117.153488 255.536773 
L 117.254968 226.969583 
L 117.457928 244.692816 
L 117.660888 226.638707 
L 117.863848 240.807537 
L 117.965328 240.967149 
L 118.168288 251.581513 
L 118.371247 241.191799 
L 118.472727 254.588286 
L 118.574207 235.831287 
L 118.675687 262.848254 
L 118.777167 256.039989 
L 118.878647 235.90456 
L 119.081607 271.044484 
L 119.183087 243.13057 
L 119.284567 257.232098 
L 119.386047 239.563519 
L 119.487526 247.214319 
L 119.690486 216.219732 
L 119.893446 250.677086 
L 119.994926 252.725934 
L 120.096406 247.789026 
L 120.197886 249.02359 
L 120.299366 242.648782 
L 120.400846 251.082583 
L 120.502326 248.914042 
L 120.603805 251.161217 
L 120.806765 276.930795 
L 120.908245 214.589655 
L 121.009725 241.023536 
L 121.111205 232.984414 
L 121.314165 273.807474 
L 121.415645 249.924935 
L 121.517125 253.372887 
L 121.618605 233.310699 
L 121.821564 286.003907 
L 122.024524 243.354979 
L 122.227484 260.096371 
L 122.430444 244.200306 
L 122.531924 243.809223 
L 122.633404 250.145364 
L 122.734884 234.464784 
L 122.836364 254.902886 
L 122.937844 251.791332 
L 123.039323 225.251192 
L 123.343763 263.040594 
L 123.445243 244.433559 
L 123.546723 249.919157 
L 123.648203 249.60828 
L 123.749683 239.295387 
L 123.851163 239.676743 
L 123.952643 252.788967 
L 124.054123 250.061272 
L 124.257082 270.741184 
L 124.561522 228.814985 
L 124.663002 264.849014 
L 124.764482 260.720836 
L 124.865962 239.45747 
L 124.967442 239.822904 
L 125.068922 240.917214 
L 125.170402 255.904149 
L 125.271882 253.261798 
L 125.373362 229.086744 
L 125.576321 266.403925 
L 125.779281 248.196818 
L 125.880761 254.846242 
L 125.982241 235.440365 
L 126.286681 272.238182 
L 126.388161 247.706347 
L 126.489641 249.597334 
L 126.591121 261.977775 
L 126.6926 261.477 
L 126.79408 256.318153 
L 126.99704 269.910046 
L 127.2 233.781171 
L 127.40296 242.528367 
L 127.50444 264.726721 
L 127.60592 246.094054 
L 127.808879 269.733212 
L 128.113319 245.821523 
L 128.214799 250.264912 
L 128.316279 239.683998 
L 128.417759 267.82444 
L 128.519239 252.131437 
L 128.620719 269.392593 
L 128.722199 267.862417 
L 128.823679 262.618356 
L 129.026638 293.862728 
L 129.128118 258.018197 
L 129.229598 289.262843 
L 129.331078 267.870683 
L 129.432558 283.207306 
L 129.534038 268.010552 
L 129.635518 277.025094 
L 129.736998 274.774773 
L 129.838478 292.075351 
L 129.939958 275.132165 
L 130.041438 281.635477 
L 130.244397 280.13177 
L 130.345877 276.472265 
L 130.447357 266.758171 
L 130.548837 289.584826 
L 130.853277 272.162486 
L 130.954757 292.306758 
L 131.157717 285.985625 
L 131.259197 293.433636 
L 131.462156 285.246604 
L 131.665116 296.41582 
L 131.766596 276.563611 
L 131.969556 292.476979 
L 132.172516 297.825517 
L 132.273996 272.963383 
L 132.375476 281.026871 
L 132.476956 280.22761 
L 132.578436 297.575089 
L 132.679915 281.296753 
L 132.781395 284.939981 
L 132.882875 281.691447 
L 132.984355 306.812692 
L 133.085835 287.068427 
L 133.187315 291.887425 
L 133.288795 282.311546 
L 133.390275 293.910352 
L 133.491755 290.688558 
L 133.694715 275.295035 
L 133.999154 297.039386 
L 134.100634 292.299712 
L 134.303594 271.736668 
L 134.405074 292.135879 
L 134.506554 289.951688 
L 134.608034 300.686371 
L 134.810994 274.812862 
L 135.013953 299.561627 
L 135.115433 309.140492 
L 135.318393 285.854151 
L 135.419873 290.731238 
L 135.521353 272.760852 
L 135.724313 301.114178 
L 135.825793 291.207103 
L 135.927273 293.120978 
L 136.028753 276.679564 
L 136.231712 309.042099 
L 136.333192 293.187574 
L 136.434672 302.943353 
L 136.637632 285.75104 
L 136.739112 294.943556 
L 136.840592 291.763335 
L 137.043552 294.965498 
L 137.246512 286.677729 
L 137.347992 287.723325 
L 137.449471 308.294186 
L 137.550951 290.434294 
L 137.652431 292.292682 
L 137.753911 279.732629 
L 137.855391 301.260371 
L 137.956871 300.089273 
L 138.058351 303.411048 
L 138.261311 284.357442 
L 138.362791 288.260745 
L 138.464271 282.914407 
L 138.565751 297.374339 
L 138.87019 280.284928 
L 139.07315 294.730222 
L 139.17463 284.684321 
L 139.27611 303.435654 
L 139.47907 285.195883 
L 139.58055 291.992576 
L 139.68203 285.264501 
L 139.78351 293.537647 
L 139.884989 291.659164 
L 139.986469 302.517471 
L 140.189429 283.134306 
L 140.290909 287.653182 
L 140.392389 286.066603 
L 140.493869 300.042901 
L 140.595349 293.190014 
L 140.696829 308.018927 
L 140.798309 301.911978 
L 140.899789 306.045919 
L 141.001268 304.382953 
L 141.102748 288.397805 
L 141.204228 298.560188 
L 141.305708 281.149998 
L 141.407188 290.459767 
L 141.508668 313.119171 
L 141.711628 283.556062 
L 141.813108 300.204952 
L 141.914588 298.441138 
L 142.016068 278.498979 
L 142.219027 305.344666 
L 142.421987 293.597678 
L 142.523467 292.355393 
L 142.726427 299.848812 
L 142.827907 282.017989 
L 142.929387 297.922016 
L 143.030867 276.492152 
L 143.132347 306.63061 
L 143.335307 273.304628 
L 143.741226 307.479484 
L 143.842706 302.710822 
L 143.944186 288.519006 
L 144.045666 300.207601 
L 144.147146 296.204781 
L 144.248626 304.188912 
L 144.350106 283.897259 
L 144.451586 293.386623 
L 144.553066 290.176724 
L 144.654545 291.49135 
L 144.756025 279.829079 
L 144.857505 286.896168 
L 144.958985 282.013672 
L 145.161945 301.118432 
L 145.263425 280.336468 
L 145.466385 310.096747 
L 145.669345 290.235791 
L 145.770825 281.416317 
L 145.872304 297.919945 
L 145.973784 295.730875 
L 146.075264 298.049637 
L 146.176744 305.438677 
L 146.278224 289.398939 
L 146.481184 305.988023 
L 146.582664 302.104478 
L 146.684144 281.026004 
L 146.887104 306.370406 
L 146.988584 297.555924 
L 147.090063 298.371107 
L 147.191543 292.04227 
L 147.293023 303.566614 
L 147.495983 280.222474 
L 147.698943 297.175547 
L 147.800423 297.04319 
L 147.901903 300.838037 
L 148.003383 299.738526 
L 148.104863 290.045266 
L 148.206342 290.779391 
L 148.307822 289.891144 
L 148.409302 280.928285 
L 148.612262 306.500002 
L 148.815222 294.030237 
L 149.018182 287.803516 
L 149.221142 301.34045 
L 149.322622 298.70935 
L 149.424101 290.699104 
L 149.627061 313.046139 
L 149.728541 289.911609 
L 149.830021 313.581681 
L 150.032981 290.48317 
L 150.337421 305.483941 
L 150.438901 290.399704 
L 150.540381 299.959307 
L 150.64186 294.290183 
L 150.74334 309.194231 
L 150.9463 288.888388 
L 151.14926 308.140593 
L 151.35222 296.795041 
L 151.4537 294.878453 
L 151.55518 299.095666 
L 151.65666 296.548225 
L 151.75814 306.290633 
L 151.859619 302.836919 
L 151.961099 309.240682 
L 152.062579 284.460521 
L 152.164059 299.047625 
L 152.265539 289.229505 
L 152.569979 298.378298 
L 152.772939 287.053034 
L 152.874419 303.059209 
L 153.077378 287.461147 
L 153.178858 297.345607 
L 153.280338 294.827507 
L 153.381818 307.292168 
L 153.584778 292.100133 
L 153.686258 303.516647 
L 153.787738 293.374119 
L 153.889218 300.811874 
L 153.990698 292.426964 
L 154.193658 299.488001 
L 154.295137 291.623193 
L 154.498097 298.469692 
L 154.701057 290.442207 
L 154.802537 295.669961 
L 154.904017 288.842258 
L 155.208457 301.663701 
L 155.411416 288.195482 
L 155.614376 296.649121 
L 155.715856 297.898244 
L 155.817336 294.404017 
L 155.918816 303.024844 
L 156.020296 289.141481 
L 156.527696 305.027835 
L 156.832135 289.561359 
L 156.933615 307.207676 
L 157.035095 293.162872 
L 157.136575 295.738194 
L 157.238055 309.470693 
L 157.339535 294.462587 
L 157.542495 302.571563 
L 157.745455 296.420812 
L 157.846934 293.15223 
L 157.948414 298.582387 
L 158.049894 293.563184 
L 158.151374 296.871348 
L 158.252854 294.165627 
L 158.354334 287.29961 
L 158.658774 299.124719 
L 158.760254 287.876516 
L 158.963214 304.216873 
L 159.064693 299.967526 
L 159.166173 287.331054 
L 159.267653 292.817084 
L 159.369133 280.599272 
L 159.470613 304.546786 
L 159.775053 289.519884 
L 159.876533 291.879271 
L 160.079493 303.692422 
L 160.180973 299.892632 
L 160.282452 307.054694 
L 160.485412 294.635216 
L 160.586892 304.448409 
L 160.688372 285.389522 
L 160.789852 309.592842 
L 160.891332 304.594024 
L 160.992812 306.048262 
L 161.195772 292.081065 
L 161.297252 305.987734 
L 161.398732 292.282794 
L 161.601691 312.892562 
L 161.804651 290.615318 
L 162.007611 297.416858 
L 162.109091 309.72133 
L 162.210571 304.694632 
L 162.312051 307.085463 
L 162.413531 300.744267 
L 162.61649 313.980388 
L 162.71797 305.213657 
L 162.81945 284.318598 
L 162.92093 302.170817 
L 163.02241 291.442491 
L 163.12389 307.397752 
L 163.32685 302.536636 
L 163.42833 307.051098 
L 163.52981 296.641626 
L 163.63129 309.470998 
L 163.834249 290.835361 
L 163.935729 292.853103 
L 164.037209 303.318818 
L 164.240169 286.28106 
L 164.341649 295.984625 
L 164.443129 290.98844 
L 164.544609 301.643718 
L 164.646089 300.271452 
L 164.747569 304.540927 
L 164.849049 277.91201 
L 165.052008 304.297947 
L 165.254968 292.11803 
L 165.356448 296.713133 
L 165.457928 288.507016 
L 165.660888 305.120465 
L 165.762368 301.816539 
L 165.863848 290.177783 
L 165.965328 290.394343 
L 166.066808 279.715502 
L 166.269767 303.931518 
L 166.371247 299.42704 
L 166.472727 304.073056 
L 166.777167 298.364478 
L 166.878647 291.868036 
L 166.980127 298.060118 
L 167.081607 292.121433 
L 167.284567 304.1071 
L 167.386047 296.30754 
L 167.487526 304.876522 
L 167.589006 300.024635 
L 167.690486 304.62985 
L 167.791966 297.07969 
L 167.893446 305.100498 
L 167.994926 303.439008 
L 168.096406 304.262554 
L 168.197886 288.675038 
L 168.299366 294.38368 
L 168.400846 290.73952 
L 168.502326 307.169763 
L 168.603805 303.299621 
L 168.705285 307.933551 
L 168.806765 294.335575 
L 169.314165 308.165858 
L 169.415645 290.820113 
L 169.618605 310.787567 
L 169.720085 295.204401 
L 169.821564 300.650095 
L 170.024524 290.569235 
L 170.328964 315.58541 
L 170.430444 297.730126 
L 170.734884 310.272763 
L 170.937844 306.272672 
L 171.039323 310.998173 
L 171.140803 296.867833 
L 171.242283 298.764293 
L 171.343763 298.403418 
L 171.445243 313.510109 
L 171.648203 296.577839 
L 171.749683 291.159881 
L 171.851163 302.751928 
L 171.952643 299.589059 
L 172.054123 310.468024 
L 172.257082 285.045693 
L 172.358562 296.774785 
L 172.460042 296.171908 
L 172.561522 303.279381 
L 172.663002 294.700094 
L 172.865962 302.205744 
L 172.967442 289.61375 
L 173.068922 302.667773 
L 173.170402 300.94338 
L 173.271882 308.081397 
L 173.373362 306.935418 
L 173.474841 300.73722 
L 173.576321 306.105147 
L 173.677801 305.093949 
L 173.779281 295.395248 
L 173.982241 304.194498 
L 174.083721 297.877554 
L 174.286681 309.658988 
L 174.388161 298.14925 
L 174.489641 303.990249 
L 174.591121 303.894825 
L 174.6926 294.158067 
L 174.79408 295.08129 
L 174.89556 295.370304 
L 174.99704 292.521537 
L 175.2 294.450099 
L 175.40296 305.827208 
L 175.50444 303.68178 
L 175.60592 307.157629 
L 175.7074 300.007075 
L 175.808879 306.409362 
L 176.011839 293.008557 
L 176.113319 315.765711 
L 176.316279 298.507364 
L 176.417759 299.686793 
L 176.519239 282.16659 
L 176.620719 313.628646 
L 176.722199 291.123044 
L 176.823679 310.033635 
L 176.925159 287.593777 
L 177.026638 299.747835 
L 177.128118 292.73073 
L 177.331078 308.541114 
L 177.432558 299.232678 
L 177.534038 308.961972 
L 177.635518 302.07724 
L 177.736998 304.588406 
L 177.838478 294.504978 
L 177.939958 304.994144 
L 178.041438 298.796941 
L 178.142918 311.503331 
L 178.447357 287.390041 
L 178.548837 314.560841 
L 178.954757 295.000537 
L 179.056237 294.947232 
L 179.157717 289.934225 
L 179.259197 292.785945 
L 179.360677 300.885371 
L 179.462156 300.809386 
L 179.563636 305.490778 
L 179.665116 299.918747 
L 179.766596 302.642653 
L 179.868076 295.354253 
L 179.969556 316.526337 
L 180.071036 296.085329 
L 180.172516 298.697729 
L 180.273996 294.185916 
L 180.578436 313.30753 
L 180.679915 312.532554 
L 180.781395 292.356324 
L 180.882875 307.262137 
L 181.085835 292.044083 
L 181.187315 301.983245 
L 181.288795 286.12559 
L 181.491755 303.973652 
L 181.694715 310.891417 
L 181.796195 287.805362 
L 181.897674 306.602039 
L 182.100634 301.972603 
L 182.202114 309.383055 
L 182.303594 307.001757 
L 182.405074 298.492324 
L 182.608034 302.671433 
L 182.709514 308.514454 
L 182.810994 297.093237 
L 183.115433 303.393536 
L 183.318393 318.808391 
L 183.521353 296.094093 
L 183.724313 308.858267 
L 183.825793 288.90659 
L 183.927273 309.349107 
L 184.028753 296.10947 
L 184.130233 306.380615 
L 184.231712 304.710939 
L 184.333192 300.793832 
L 184.434672 290.10756 
L 184.739112 306.452058 
L 184.840592 300.721859 
L 184.942072 302.043276 
L 185.246512 312.916157 
L 185.449471 297.844826 
L 185.550951 297.992158 
L 185.652431 292.993212 
L 185.855391 307.843377 
L 186.058351 288.345254 
L 186.159831 308.415563 
L 186.261311 290.60901 
L 186.464271 308.982164 
L 186.565751 298.798819 
L 186.66723 307.896538 
L 186.87019 304.453882 
L 186.97167 309.586245 
L 187.17463 295.388153 
L 187.37759 305.025572 
L 187.47907 295.726974 
L 187.58055 308.179983 
L 187.68203 298.892958 
L 187.78351 305.139277 
L 187.884989 300.132787 
L 187.986469 305.018429 
L 188.087949 295.010007 
L 188.189429 308.270398 
L 188.493869 300.441127 
L 188.595349 306.832018 
L 188.696829 292.909715 
L 188.798309 310.442486 
L 189.204228 304.807278 
L 189.305708 310.792431 
L 189.407188 308.555111 
L 189.508668 302.284394 
L 189.610148 282.742725 
L 189.711628 311.894173 
L 189.813108 298.09649 
L 189.914588 311.794303 
L 190.016068 305.83167 
L 190.117548 313.732914 
L 190.219027 310.237226 
L 190.320507 297.574318 
L 190.421987 311.047851 
L 190.523467 301.058112 
L 190.624947 316.218575 
L 190.827907 291.545185 
L 190.929387 296.358646 
L 191.030867 295.984095 
L 191.132347 287.681753 
L 191.233827 304.145045 
L 191.335307 302.874751 
L 191.436786 296.627019 
L 191.639746 311.524261 
L 191.741226 309.698152 
L 191.944186 296.990318 
L 192.045666 311.898683 
L 192.248626 284.760643 
L 192.451586 312.928998 
L 192.553066 312.258338 
L 192.654545 307.764261 
L 192.756025 307.817775 
L 192.857505 308.795828 
L 192.958985 307.994946 
L 193.060465 292.376307 
L 193.263425 301.681935 
L 193.364905 306.826705 
L 193.466385 303.535443 
L 193.567865 308.892503 
L 193.669345 304.228799 
L 193.770825 307.254866 
L 193.872304 306.777717 
L 193.973784 306.805871 
L 194.075264 310.143087 
L 194.176744 303.563404 
L 194.278224 315.032645 
L 194.481184 308.032971 
L 194.582664 321.539103 
L 194.785624 297.260746 
L 194.988584 311.114157 
L 195.293023 299.104767 
L 195.394503 304.017551 
L 195.495983 315.558123 
L 195.698943 287.968552 
L 196.104863 303.171149 
L 196.206342 299.991971 
L 196.307822 313.307658 
L 196.409302 299.399865 
L 196.510782 308.574773 
L 196.612262 305.81143 
L 196.713742 282.587159 
L 196.916702 303.639149 
L 197.018182 296.392337 
L 197.119662 308.429544 
L 197.221142 299.074928 
L 197.424101 305.039424 
L 197.525581 295.920565 
L 197.627061 298.464668 
L 197.728541 287.535496 
L 197.830021 298.994224 
L 197.931501 286.461394 
L 198.134461 300.405446 
L 198.235941 299.705509 
L 198.337421 310.771163 
L 198.438901 307.846442 
L 198.74334 316.833522 
L 198.84482 297.667029 
L 198.9463 299.843676 
L 199.04778 308.779199 
L 199.25074 299.465225 
L 199.35222 301.815608 
L 199.4537 301.687681 
L 199.65666 305.087256 
L 199.75814 303.461769 
L 199.859619 309.43376 
L 199.961099 300.706627 
L 200.062579 302.303511 
L 200.164059 308.969452 
L 200.265539 307.464123 
L 200.367019 286.205171 
L 200.569979 306.382413 
L 200.671459 297.464 
L 200.772939 307.239168 
L 200.874419 293.776887 
L 200.975899 294.183957 
L 201.077378 312.078647 
L 201.381818 298.173647 
L 201.483298 301.616126 
L 201.584778 318.818054 
L 201.686258 317.77355 
L 201.787738 297.457114 
L 202.092178 307.631455 
L 202.193658 314.355549 
L 202.295137 300.414819 
L 202.396617 310.366485 
L 202.498097 305.262597 
L 202.599577 316.538584 
L 202.802537 298.513431 
L 202.904017 309.804234 
L 203.005497 309.515107 
L 203.106977 313.264288 
L 203.309937 296.081654 
L 203.411416 317.805989 
L 203.512896 301.449741 
L 203.614376 312.351097 
L 203.715856 299.631385 
L 203.817336 300.257423 
L 203.918816 310.012351 
L 204.020296 307.832189 
L 204.121776 302.238601 
L 204.223256 302.353494 
L 204.324736 304.987916 
L 204.426216 302.087962 
L 204.527696 315.684172 
L 204.629175 310.486755 
L 204.730655 314.250896 
L 204.832135 288.555843 
L 204.933615 296.00891 
L 205.035095 314.40566 
L 205.136575 299.301697 
L 205.339535 310.986648 
L 205.441015 310.800199 
L 205.542495 311.744401 
L 205.643975 302.754352 
L 205.745455 303.015855 
L 205.948414 296.637597 
L 206.049894 305.046615 
L 206.151374 299.290349 
L 206.252854 318.364259 
L 206.354334 315.986573 
L 206.557294 289.642786 
L 206.658774 320.918924 
L 206.760254 304.107341 
L 206.861734 313.045304 
L 207.064693 301.001741 
L 207.166173 296.65803 
L 207.369133 310.652947 
L 207.470613 309.4753 
L 207.572093 306.642279 
L 207.673573 309.557642 
L 207.775053 309.219029 
L 207.978013 304.755048 
L 208.180973 310.836716 
L 208.383932 304.431571 
L 208.485412 304.545518 
L 208.586892 313.707039 
L 208.688372 300.472956 
L 208.891332 313.587732 
L 208.992812 299.240655 
L 209.094292 308.583521 
L 209.195772 308.277621 
L 209.297252 302.321809 
L 209.398732 305.154028 
L 209.500211 314.204236 
L 209.804651 298.649303 
L 210.109091 315.847732 
L 210.312051 298.663187 
L 210.515011 314.1426 
L 210.61649 310.231608 
L 210.71797 301.344992 
L 210.81945 309.339653 
L 211.02241 295.994866 
L 211.22537 298.12718 
L 211.32685 300.905323 
L 211.42833 318.940924 
L 211.63129 294.142225 
L 211.73277 321.431642 
L 211.935729 306.720608 
L 212.037209 299.815057 
L 212.138689 304.076603 
L 212.341649 300.418736 
L 212.544609 313.661711 
L 212.646089 312.654911 
L 212.747569 307.46621 
L 212.849049 296.191362 
L 213.052008 310.601873 
L 213.254968 297.339733 
L 213.457928 315.756915 
L 213.660888 300.753384 
L 213.762368 297.411416 
L 213.965328 311.650262 
L 214.066808 300.818454 
L 214.269767 310.376757 
L 214.371247 303.175756 
L 214.472727 312.856865 
L 214.574207 309.957906 
L 214.675687 311.976466 
L 214.777167 303.624205 
L 214.878647 317.206724 
L 215.081607 297.430212 
L 215.386047 315.66032 
L 215.487526 312.875484 
L 215.589006 291.989638 
L 215.791966 310.426339 
L 215.893446 301.792559 
L 216.096406 312.973957 
L 216.197886 295.292826 
L 216.400846 310.521281 
L 216.502326 298.601471 
L 216.603805 308.597357 
L 216.705285 304.454717 
L 216.806765 310.758804 
L 216.908245 297.303489 
L 217.111205 309.137811 
L 217.314165 305.323848 
L 217.415645 289.942668 
L 217.618605 320.655382 
L 217.720085 298.25257 
L 218.024524 317.969099 
L 218.227484 308.420154 
L 218.328964 314.355902 
L 218.531924 295.938944 
L 218.633404 306.508558 
L 218.734884 300.749596 
L 218.836364 300.865596 
L 218.937844 300.400678 
L 219.039323 313.286262 
L 219.140803 312.731683 
L 219.242283 306.598973 
L 219.343763 311.330894 
L 219.546723 302.413589 
L 219.648203 311.38993 
L 219.851163 306.963989 
L 219.952643 316.763395 
L 220.155603 306.764555 
L 220.257082 307.871883 
L 220.358562 313.010698 
L 220.460042 301.557684 
L 220.663002 303.820381 
L 220.764482 307.64497 
L 220.865962 303.526358 
L 220.967442 314.261201 
L 221.068922 300.228579 
L 221.271882 305.471501 
L 221.373362 312.856207 
L 221.474841 300.866335 
L 221.576321 312.230313 
L 221.779281 302.579187 
L 221.880761 304.94079 
L 222.083721 316.946152 
L 222.185201 316.613109 
L 222.286681 306.934905 
L 222.388161 311.956692 
L 222.591121 299.113499 
L 222.6926 306.299991 
L 222.79408 306.285272 
L 222.89556 308.429175 
L 222.99704 302.083548 
L 223.09852 308.985471 
L 223.2 301.126779 
L 223.30148 311.0344 
L 223.40296 308.033774 
L 223.50444 298.632803 
L 223.7074 316.317465 
L 224.011839 294.563805 
L 224.113319 308.066004 
L 224.214799 294.789723 
L 224.316279 318.790928 
L 224.519239 305.608111 
L 224.620719 305.970864 
L 224.722199 310.782463 
L 224.925159 301.514828 
L 225.026638 312.397228 
L 225.229598 304.788771 
L 225.331078 305.13703 
L 225.432558 313.320499 
L 225.534038 293.584243 
L 225.635518 308.228071 
L 225.736998 297.966653 
L 225.939958 304.085303 
L 226.041438 318.852933 
L 226.244397 302.883547 
L 226.345877 303.492458 
L 226.447357 311.52508 
L 226.548837 303.66666 
L 226.650317 316.950566 
L 226.751797 305.799841 
L 226.853277 306.001827 
L 226.954757 317.721175 
L 227.056237 303.637929 
L 227.157717 304.197275 
L 227.259197 307.979489 
L 227.360677 307.599385 
L 227.462156 302.192807 
L 227.563636 302.425691 
L 227.665116 312.380888 
L 227.766596 310.657859 
L 227.868076 313.147581 
L 227.969556 296.337073 
L 228.273996 316.606063 
L 228.375476 314.932342 
L 228.476956 310.417463 
L 228.578436 313.541281 
L 228.781395 303.670528 
L 228.984355 304.761051 
L 229.085835 301.232442 
L 229.288795 312.523806 
L 229.390275 313.709977 
L 229.491755 309.012453 
L 229.694715 314.007017 
L 229.796195 301.488713 
L 229.897674 306.5948 
L 229.999154 294.360486 
L 230.100634 309.664493 
L 230.202114 300.662711 
L 230.405074 316.616688 
L 230.506554 300.474914 
L 230.608034 308.944509 
L 230.709514 300.782885 
L 230.912474 312.443134 
L 231.013953 296.529333 
L 231.216913 315.388031 
L 231.318393 300.373649 
L 231.419873 323.943594 
L 231.622833 299.428115 
L 231.724313 306.8516 
L 231.825793 298.135944 
L 231.927273 309.647014 
L 232.028753 305.235102 
L 232.130233 310.436387 
L 232.231712 300.99715 
L 232.333192 306.95651 
L 232.637632 304.030777 
L 232.739112 305.321119 
L 232.942072 298.231897 
L 233.043552 299.499622 
L 233.145032 312.253619 
L 233.246512 310.574105 
L 233.347992 319.085223 
L 233.449471 297.630577 
L 233.550951 313.683669 
L 233.652431 306.753496 
L 233.753911 315.709148 
L 233.855391 291.862723 
L 233.956871 308.139502 
L 234.058351 305.311793 
L 234.159831 297.696852 
L 234.261311 317.421711 
L 234.362791 316.349936 
L 234.565751 298.653123 
L 234.76871 312.577048 
L 234.97167 299.377891 
L 235.07315 317.462882 
L 235.17463 309.899416 
L 235.27611 318.268146 
L 235.47907 304.570573 
L 235.58055 307.517621 
L 235.68203 307.286069 
L 235.78351 304.162942 
L 235.884989 314.648913 
L 236.087949 305.356993 
L 236.189429 306.227665 
L 236.290909 300.958275 
L 236.493869 311.733117 
L 236.595349 306.120877 
L 236.696829 309.201486 
L 236.798309 307.320643 
L 236.899789 314.468725 
L 237.001268 312.515797 
L 237.102748 299.441036 
L 237.204228 317.747659 
L 237.305708 293.395916 
L 237.407188 317.361392 
L 237.508668 301.942652 
L 237.914588 318.288049 
L 238.016068 294.014796 
L 238.117548 317.721994 
L 238.320507 292.183743 
L 238.523467 307.156056 
L 238.624947 305.317171 
L 238.726427 312.990538 
L 239.030867 304.739992 
L 239.132347 310.231993 
L 239.233827 307.860005 
L 239.335307 291.606998 
L 239.436786 315.704653 
L 239.538266 300.052307 
L 239.639746 302.318037 
L 239.741226 318.917153 
L 239.842706 313.009189 
L 240.147146 324.848439 
L 240.248626 304.253566 
L 240.451586 319.764486 
L 240.654545 306.179255 
L 240.756025 302.845265 
L 240.857505 315.458158 
L 240.958985 297.293329 
L 241.060465 312.737734 
L 241.161945 297.875532 
L 241.263425 309.699131 
L 241.364905 302.16727 
L 241.567865 312.167313 
L 241.669345 296.548931 
L 241.872304 304.010794 
L 241.973784 304.100423 
L 242.075264 306.192673 
L 242.176744 303.307454 
L 242.278224 314.497472 
L 242.379704 311.974893 
L 242.481184 304.020312 
L 242.582664 309.118727 
L 242.785624 304.960998 
L 242.887104 290.247541 
L 242.988584 316.550398 
L 243.090063 314.880642 
L 243.293023 298.487011 
L 243.495983 320.109712 
L 243.800423 305.232341 
L 243.901903 307.362841 
L 244.003383 312.791313 
L 244.206342 310.083794 
L 244.307822 312.291564 
L 244.409302 302.75761 
L 244.612262 313.884644 
L 244.713742 307.660636 
L 244.815222 308.219099 
L 244.916702 314.603184 
L 245.221142 307.803361 
L 245.424101 314.363863 
L 245.525581 314.409641 
L 245.627061 300.468831 
L 245.728541 308.875859 
L 245.830021 307.501763 
L 245.931501 295.052671 
L 246.032981 316.854035 
L 246.235941 305.602622 
L 246.337421 316.207291 
L 246.438901 312.848807 
L 246.540381 297.039306 
L 246.74334 311.113965 
L 246.84482 308.458099 
L 246.9463 313.258124 
L 247.04778 310.666414 
L 247.14926 315.894537 
L 247.25074 315.395896 
L 247.35222 313.766332 
L 247.4537 315.539825 
L 247.55518 299.733229 
L 247.65666 305.367218 
L 247.75814 294.403246 
L 247.859619 315.44636 
L 247.961099 300.221645 
L 248.062579 313.855672 
L 248.164059 308.218088 
L 248.265539 316.164419 
L 248.367019 316.099492 
L 248.468499 313.877132 
L 248.569979 316.497333 
L 248.772939 300.172995 
L 248.874419 311.256498 
L 248.975899 299.732828 
L 249.178858 314.861188 
L 249.280338 301.072494 
L 249.381818 301.81235 
L 249.483298 316.920358 
L 249.686258 302.446317 
L 249.889218 308.710934 
L 249.990698 310.445857 
L 250.092178 303.347839 
L 250.295137 306.602392 
L 250.396617 298.953695 
L 250.498097 308.284924 
L 250.599577 299.794447 
L 250.701057 300.863831 
L 250.802537 314.924269 
L 250.904017 300.657463 
L 251.005497 306.717702 
L 251.106977 320.786631 
L 251.208457 316.698308 
L 251.309937 319.550366 
L 251.512896 305.698655 
L 251.614376 316.908143 
L 251.817336 302.108796 
L 251.918816 314.205359 
L 252.020296 305.763244 
L 252.121776 314.166853 
L 252.223256 303.563532 
L 252.324736 308.592751 
L 252.527696 292.226728 
L 252.629175 311.239179 
L 252.730655 305.857159 
L 252.933615 313.762833 
L 253.035095 308.994251 
L 253.136575 311.818573 
L 253.238055 310.698003 
L 253.441015 308.230559 
L 253.745455 319.930695 
L 253.846934 307.604602 
L 253.948414 318.783014 
L 254.049894 313.994192 
L 254.151374 318.794154 
L 254.252854 308.366656 
L 254.354334 316.597491 
L 254.455814 305.78127 
L 254.557294 307.904403 
L 254.658774 298.442261 
L 254.861734 312.782757 
L 255.064693 286.975877 
L 255.369133 323.855539 
L 255.470613 304.392102 
L 255.572093 312.223123 
L 255.775053 306.687109 
L 255.978013 319.500768 
L 256.180973 305.877624 
L 256.282452 311.412161 
L 256.383932 311.266578 
L 256.485412 298.374253 
L 256.586892 300.755149 
L 256.688372 316.570975 
L 256.789852 303.625024 
L 256.891332 305.876356 
L 256.992812 298.344446 
L 257.195772 319.356164 
L 257.297252 303.800092 
L 257.398732 311.805491 
L 257.500211 301.389357 
L 257.703171 311.610921 
L 257.804651 310.039654 
L 258.007611 310.826234 
L 258.109091 308.083516 
L 258.210571 318.76348 
L 258.515011 297.022516 
L 258.61649 308.359192 
L 258.71797 306.640738 
L 258.81945 327.107508 
L 259.02241 314.343286 
L 259.22537 301.543046 
L 259.32685 321.747446 
L 259.52981 301.945365 
L 259.63129 319.724054 
L 259.73277 301.438184 
L 259.935729 317.69636 
L 260.037209 293.048091 
L 260.240169 316.476146 
L 260.341649 292.564682 
L 260.544609 310.729334 
L 260.849049 316.799943 
L 260.950529 300.114408 
L 261.052008 305.339337 
L 261.153488 305.308551 
L 261.356448 313.783795 
L 261.457928 311.393237 
L 261.559408 313.587363 
L 261.660888 305.601723 
L 261.762368 310.980115 
L 261.863848 310.613943 
L 261.965328 300.196558 
L 262.066808 315.734027 
L 262.168288 309.911968 
L 262.269767 310.129443 
L 262.371247 312.843767 
L 262.574207 294.833719 
L 263.081607 319.03394 
L 263.183087 316.665002 
L 263.284567 305.686119 
L 263.386047 313.927645 
L 263.589006 305.944669 
L 263.690486 309.264165 
L 263.893446 301.064597 
L 263.994926 311.444134 
L 264.299366 303.171277 
L 264.400846 314.206531 
L 264.502326 314.030516 
L 264.603805 314.317925 
L 264.806765 298.410609 
L 264.908245 311.652011 
L 265.009725 304.241222 
L 265.111205 314.754866 
L 265.212685 314.555561 
L 265.314165 309.246284 
L 265.517125 314.514293 
L 265.618605 314.082425 
L 265.720085 308.530826 
L 265.821564 324.9042 
L 266.024524 303.782693 
L 266.126004 311.389994 
L 266.227484 300.65024 
L 266.328964 313.949394 
L 266.531924 306.298418 
L 266.633404 311.316753 
L 266.734884 311.248392 
L 266.836364 313.60213 
L 266.937844 305.647966 
L 267.039323 311.136677 
L 267.140803 308.48439 
L 267.343763 311.198843 
L 267.445243 321.649261 
L 267.546723 302.969227 
L 267.749683 315.85038 
L 267.952643 297.16094 
L 268.155603 315.432011 
L 268.257082 309.952031 
L 268.358562 317.801125 
L 268.561522 301.333997 
L 268.663002 304.003748 
L 268.764482 317.121814 
L 268.865962 303.690255 
L 268.967442 314.251233 
L 269.068922 300.967665 
L 269.170402 308.881396 
L 269.271882 298.488408 
L 269.373362 303.683899 
L 269.474841 298.390529 
L 269.576321 308.965728 
L 269.677801 306.372959 
L 269.779281 311.711657 
L 269.880761 301.122702 
L 270.083721 317.245937 
L 270.185201 314.769617 
L 270.286681 304.535582 
L 270.489641 320.674916 
L 270.6926 313.135896 
L 270.89556 294.351402 
L 270.99704 305.411791 
L 271.09852 303.124537 
L 271.30148 319.790987 
L 271.40296 306.588684 
L 271.50444 312.40352 
L 271.60592 302.029199 
L 271.7074 315.107138 
L 271.808879 297.109593 
L 271.910359 307.446997 
L 272.011839 300.074153 
L 272.113319 305.275534 
L 272.214799 321.693017 
L 272.316279 316.422953 
L 272.417759 302.966643 
L 272.519239 310.948366 
L 272.620719 302.32762 
L 272.722199 319.190759 
L 272.925159 302.89451 
L 273.128118 311.083885 
L 273.229598 323.926612 
L 273.331078 321.560676 
L 273.534038 305.297348 
L 273.635518 313.166377 
L 273.736998 292.439677 
L 273.939958 322.370193 
L 274.041438 299.953529 
L 274.244397 313.97347 
L 274.345877 308.792923 
L 274.447357 321.749966 
L 274.548837 303.458334 
L 274.650317 324.483166 
L 274.751797 313.690041 
L 274.853277 319.971223 
L 274.954757 292.555228 
L 275.157717 324.092034 
L 275.360677 300.23447 
L 275.462156 300.272623 
L 275.665116 310.488761 
L 275.766596 307.807775 
L 275.969556 321.397614 
L 276.071036 305.450571 
L 276.172516 313.248285 
L 276.273996 313.111242 
L 276.375476 304.909282 
L 276.578436 320.645575 
L 276.679915 308.822954 
L 276.781395 322.643686 
L 276.984355 310.990099 
L 277.085835 308.128266 
L 277.187315 321.134762 
L 277.390275 304.457911 
L 277.491755 307.596865 
L 277.593235 321.26171 
L 277.796195 305.062264 
L 277.897674 315.561446 
L 278.100634 296.428099 
L 278.202114 307.261944 
L 278.303594 306.772966 
L 278.405074 312.637753 
L 278.608034 307.362456 
L 278.709514 310.016524 
L 278.810994 302.036374 
L 278.912474 309.954632 
L 279.115433 296.652123 
L 279.216913 312.888309 
L 279.318393 296.94881 
L 279.419873 312.846817 
L 279.521353 297.239061 
L 279.622833 315.864762 
L 279.724313 313.042062 
L 279.927273 294.572199 
L 280.130233 308.520537 
L 280.231712 303.09839 
L 280.333192 324.998933 
L 280.434672 306.360326 
L 280.536152 317.082361 
L 280.637632 308.888443 
L 280.739112 314.418453 
L 280.840592 311.460956 
L 280.942072 317.669828 
L 281.043552 309.974471 
L 281.145032 312.489377 
L 281.246512 317.833163 
L 281.347992 304.619625 
L 281.550951 312.743577 
L 281.753911 309.73637 
L 281.855391 317.704675 
L 282.058351 309.573468 
L 282.159831 314.688896 
L 282.261311 298.514234 
L 282.362791 311.919742 
L 282.464271 311.725316 
L 282.565751 317.258039 
L 282.76871 308.900978 
L 282.87019 306.041072 
L 282.97167 314.367202 
L 283.07315 311.88565 
L 283.17463 293.019424 
L 283.37759 315.062163 
L 283.47907 304.176521 
L 283.68203 312.433985 
L 283.78351 307.052928 
L 283.884989 317.720003 
L 283.986469 315.312174 
L 284.087949 318.480693 
L 284.189429 296.810691 
L 284.392389 315.856849 
L 284.493869 318.574367 
L 284.595349 305.317171 
L 284.696829 318.515524 
L 285.001268 309.241517 
L 285.102748 313.011067 
L 285.204228 304.799204 
L 285.407188 315.808552 
L 285.508668 305.861188 
L 285.610148 313.493384 
L 285.813108 308.071783 
L 285.914588 310.925012 
L 286.016068 321.677222 
L 286.117548 319.175093 
L 286.219027 313.663525 
L 286.320507 314.390203 
L 286.421987 319.95254 
L 286.523467 301.084436 
L 286.624947 306.805678 
L 286.726427 301.486289 
L 286.827907 317.946243 
L 286.929387 314.319258 
L 287.030867 317.173049 
L 287.132347 315.047332 
L 287.233827 308.882086 
L 287.538266 315.194696 
L 287.639746 297.031232 
L 287.741226 323.200962 
L 287.842706 311.913755 
L 287.944186 317.050836 
L 288.147146 313.184322 
L 288.248626 297.220056 
L 288.350106 318.626758 
L 288.553066 305.494952 
L 288.654545 318.333955 
L 288.756025 313.156505 
L 288.857505 321.570114 
L 288.958985 320.621643 
L 289.060465 324.075197 
L 289.161945 316.609369 
L 289.263425 300.142466 
L 289.364905 322.068209 
L 289.466385 307.038129 
L 289.567865 315.593211 
L 289.770825 306.967376 
L 289.872304 314.853131 
L 289.973784 305.988055 
L 290.075264 321.327968 
L 290.176744 310.190999 
L 290.379704 320.308809 
L 290.582664 301.081145 
L 290.785624 316.384109 
L 290.988584 302.775828 
L 291.090063 321.192385 
L 291.191543 297.207585 
L 291.293023 313.108706 
L 291.394503 296.950656 
L 291.495983 313.036155 
L 291.597463 305.03464 
L 291.698943 305.042168 
L 291.901903 310.247771 
L 292.003383 307.768723 
L 292.104863 307.892766 
L 292.206342 310.645227 
L 292.307822 307.89474 
L 292.409302 294.887104 
L 292.612262 316.253036 
L 292.815222 313.663605 
L 292.916702 313.460383 
L 293.018182 324.111504 
L 293.221142 299.826742 
L 293.525581 320.618866 
L 293.627061 317.84342 
L 293.728541 301.739944 
L 293.830021 312.360038 
L 293.931501 312.280858 
L 294.134461 304.253373 
L 294.235941 309.520147 
L 294.337421 296.348694 
L 294.438901 299.022072 
L 294.540381 309.697591 
L 294.64186 307.176489 
L 294.74334 307.279986 
L 294.84482 323.162616 
L 294.9463 304.638228 
L 295.04778 307.273886 
L 295.14926 301.901561 
L 295.25074 312.592681 
L 295.35222 301.977354 
L 295.55518 315.46949 
L 295.65666 304.885992 
L 295.859619 315.803367 
L 296.164059 308.120546 
L 296.265539 303.005567 
L 296.367019 303.023656 
L 296.468499 305.82281 
L 296.671459 313.927243 
L 296.874419 319.367047 
L 296.975899 306.000607 
L 297.178858 316.841017 
L 297.280338 311.487793 
L 297.381818 313.948976 
L 297.483298 292.732367 
L 297.686258 311.301104 
L 297.787738 306.113381 
L 297.889218 314.04509 
L 297.990698 300.859722 
L 298.193658 306.351755 
L 298.295137 295.688066 
L 298.396617 309.38726 
L 298.498097 306.671909 
L 298.599577 317.709972 
L 298.802537 307.194803 
L 298.904017 315.26699 
L 299.005497 307.108272 
L 299.208457 323.53317 
L 299.411416 302.356495 
L 299.715856 318.794154 
L 299.817336 300.294629 
L 300.020296 318.909561 
L 300.121776 321.67764 
L 300.324736 307.946151 
L 300.426216 312.380423 
L 300.527696 309.732983 
L 300.629175 325.602066 
L 300.730655 309.989045 
L 300.832135 318.464113 
L 301.035095 311.853275 
L 301.136575 316.206392 
L 301.339535 304.806957 
L 301.542495 319.981897 
L 301.643975 317.824576 
L 301.745455 308.469495 
L 301.948414 318.796208 
L 302.049894 316.218896 
L 302.252854 321.547049 
L 302.354334 312.158918 
L 302.455814 321.768071 
L 302.557294 320.233626 
L 302.658774 322.429839 
L 302.760254 319.74667 
L 302.963214 324.811072 
L 303.064693 313.843521 
L 303.267653 319.982989 
L 303.369133 319.761051 
L 303.470613 313.650058 
L 303.572093 324.961037 
L 303.673573 313.071419 
L 303.775053 321.886592 
L 303.978013 314.498708 
L 304.282452 326.337973 
L 304.485412 318.705857 
L 304.688372 325.630316 
L 304.789852 316.68269 
L 304.891332 321.834442 
L 304.992812 317.586957 
L 305.094292 319.967435 
L 305.195772 318.363922 
L 305.297252 322.153039 
L 305.500211 320.179213 
L 305.703171 308.224893 
L 305.804651 325.442391 
L 305.906131 311.491421 
L 306.007611 319.378138 
L 306.109091 317.876196 
L 306.210571 313.570221 
L 306.312051 325.694392 
L 306.413531 315.697478 
L 306.515011 324.058135 
L 306.61649 320.332917 
L 306.71797 324.696612 
L 306.81945 318.66719 
L 307.02241 324.960411 
L 307.22537 317.763678 
L 307.52981 322.342168 
L 307.63129 315.008874 
L 307.834249 317.297268 
L 307.935729 322.720715 
L 308.037209 319.447992 
L 308.138689 324.456601 
L 308.341649 320.92727 
L 308.544609 324.892756 
L 308.747569 321.870942 
L 308.849049 322.618518 
L 308.950529 321.427998 
L 309.052008 324.801281 
L 309.153488 313.944659 
L 309.254968 319.013154 
L 309.356448 317.538161 
L 309.457928 311.89313 
L 309.762368 321.346684 
L 309.863848 321.884072 
L 310.066808 311.811221 
L 310.168288 320.445981 
L 310.269767 317.716633 
L 310.371247 321.421401 
L 310.472727 320.956114 
L 310.574207 323.754176 
L 310.675687 323.405083 
L 310.777167 318.241309 
L 310.878647 320.792859 
L 310.980127 319.622772 
L 311.081607 319.822575 
L 311.183087 328.864372 
L 311.284567 316.865656 
L 311.386047 324.806128 
L 311.487526 320.568626 
L 311.589006 322.557557 
L 311.791966 319.681358 
L 311.893446 320.997044 
L 311.994926 319.038145 
L 312.197886 328.496114 
L 312.299366 326.719057 
L 312.400846 328.596545 
L 312.502326 327.739533 
L 312.603805 320.556572 
L 312.806765 327.228613 
L 312.908245 316.689367 
L 313.009725 327.76958 
L 313.212685 325.149909 
L 313.314165 327.682808 
L 313.415645 324.372221 
L 313.720085 328.114805 
L 313.821564 327.862243 
L 313.923044 320.115602 
L 314.024524 329.607438 
L 314.126004 328.068546 
L 314.227484 324.581173 
L 314.430444 326.317749 
L 314.531924 323.030789 
L 314.633404 326.522496 
L 314.734884 325.468345 
L 314.836364 319.631873 
L 314.937844 328.699929 
L 315.039323 327.778922 
L 315.242283 320.39725 
L 315.445243 323.881236 
L 315.851163 317.657918 
L 315.952643 322.477125 
L 316.054123 319.30761 
L 316.155603 321.682166 
L 316.257082 314.582815 
L 316.561522 321.123061 
L 316.663002 319.934723 
L 316.764482 321.088326 
L 316.865962 320.672653 
L 316.967442 321.420695 
L 317.068922 321.203107 
L 317.170402 321.640658 
L 317.373362 324.422493 
L 317.474841 324.02141 
L 317.576321 318.591141 
L 317.779281 325.637491 
L 317.880761 325.183472 
L 318.083721 318.02295 
L 318.185201 325.290741 
L 318.388161 319.070986 
L 318.591121 320.450828 
L 318.79408 324.334838 
L 318.99704 321.937265 
L 319.09852 324.011924 
L 319.2 316.591761 
L 319.30148 322.400722 
L 319.40296 314.199726 
L 319.50444 321.019789 
L 319.808879 312.850172 
L 319.910359 322.055449 
L 320.113319 315.07709 
L 320.214799 319.232363 
L 320.417759 317.911508 
L 320.519239 318.659678 
L 320.620719 316.364768 
L 320.722199 320.804207 
L 320.823679 318.814635 
L 320.925159 327.530661 
L 321.026638 321.168614 
L 321.229598 324.739468 
L 321.331078 319.892124 
L 321.432558 323.64129 
L 321.534038 320.199533 
L 321.635518 326.234557 
L 321.838478 319.789414 
L 322.142918 324.360857 
L 322.244397 321.826208 
L 322.345877 323.964653 
L 322.447357 323.271939 
L 322.548837 319.780682 
L 322.650317 320.011961 
L 322.751797 322.50125 
L 322.853277 314.359722 
L 323.056237 322.955831 
L 323.157717 323.384955 
L 323.360677 317.601033 
L 323.462156 321.849578 
L 323.665116 314.81708 
L 323.766596 323.673456 
L 323.969556 320.80371 
L 324.071036 324.335304 
L 324.172516 322.936152 
L 324.375476 328.277306 
L 324.476956 318.843077 
L 324.578436 319.953936 
L 324.781395 325.337032 
L 324.882875 323.418437 
L 324.984355 325.222395 
L 325.187315 320.610889 
L 325.390275 325.57006 
L 325.491755 322.976456 
L 325.593235 323.536444 
L 325.694715 326.15581 
L 325.999154 321.268595 
L 326.100634 317.421631 
L 326.202114 326.174879 
L 326.303594 326.001496 
L 326.405074 321.702615 
L 326.506554 326.015605 
L 326.709514 322.860568 
L 326.810994 324.855581 
L 326.912474 320.041768 
L 327.013953 324.00186 
L 327.115433 321.219206 
L 327.318393 326.544807 
L 327.419873 318.759596 
L 327.521353 322.898946 
L 327.622833 318.745214 
L 327.825793 325.551088 
L 327.927273 324.688747 
L 328.028753 325.332168 
L 328.231712 320.966435 
L 328.333192 325.032432 
L 328.637632 320.044352 
L 328.739112 324.248564 
L 328.840592 323.611049 
L 329.043552 324.756322 
L 329.145032 323.458179 
L 329.347992 325.329921 
L 329.449471 323.778076 
L 329.550951 319.619192 
L 329.652431 324.930796 
L 329.855391 320.401022 
L 329.956871 320.670984 
L 330.058351 318.100477 
L 330.159831 323.437618 
L 330.261311 320.025267 
L 330.362791 322.163135 
L 330.464271 321.165323 
L 330.565751 321.416746 
L 330.66723 325.215975 
L 330.76871 323.485225 
L 330.87019 325.256696 
L 330.97167 323.254364 
L 331.07315 323.394633 
L 331.17463 324.977553 
L 331.27611 319.197259 
L 331.37759 323.887608 
L 331.47907 321.31922 
L 331.58055 325.653446 
L 331.68203 325.154467 
L 331.78351 326.254669 
L 331.884989 319.44101 
L 331.986469 323.747852 
L 332.087949 322.966537 
L 332.189429 321.248082 
L 332.290909 310.710908 
L 332.392389 324.444162 
L 332.493869 323.335823 
L 332.595349 321.294887 
L 332.696829 323.681417 
L 332.899789 313.725562 
L 333.102748 321.477435 
L 333.204228 319.020104 
L 333.305708 324.703321 
L 333.508668 315.759195 
L 333.711628 325.990678 
L 333.914588 320.756054 
L 334.016068 326.300302 
L 334.117548 318.895468 
L 334.219027 319.401653 
L 334.320507 320.215664 
L 334.523467 325.463353 
L 334.624947 325.226103 
L 334.726427 319.557203 
L 335.233827 328.390113 
L 335.335307 323.182937 
L 335.436786 325.247066 
L 335.538266 323.533202 
L 335.639746 316.687377 
L 335.842706 324.492892 
L 335.944186 324.264117 
L 336.045666 323.896501 
L 336.147146 319.100937 
L 336.248626 329.085908 
L 336.350106 327.292142 
L 336.451586 330.284502 
L 336.553066 325.843377 
L 336.654545 326.798317 
L 336.756025 322.710667 
L 336.857505 328.090296 
L 336.958985 326.071398 
L 337.060465 328.079686 
L 337.161945 321.611381 
L 337.263425 324.225081 
L 337.466385 319.578086 
L 337.669345 327.449683 
L 337.770825 324.255081 
L 337.872304 325.05975 
L 337.973784 322.126137 
L 338.278224 327.5657 
L 338.379704 322.291383 
L 338.582664 328.361365 
L 338.785624 324.936398 
L 338.988584 329.075218 
L 339.090063 325.240982 
L 339.191543 329.82395 
L 339.495983 323.681658 
L 339.597463 327.509538 
L 339.698943 327.219688 
L 339.800423 325.104565 
L 339.901903 325.981785 
L 340.003383 331.63099 
L 340.104863 327.300361 
L 340.206342 331.912654 
L 340.409302 323.852906 
L 340.612262 327.80531 
L 340.713742 327.599311 
L 340.815222 326.206211 
L 340.916702 327.37511 
L 341.119662 321.534946 
L 341.221142 322.339808 
L 341.322622 317.198859 
L 341.525581 327.901423 
L 341.627061 323.41818 
L 341.728541 327.136127 
L 341.830021 319.022945 
L 342.032981 326.712669 
L 342.134461 324.697029 
L 342.235941 325.344271 
L 342.337421 324.055342 
L 342.438901 326.79623 
L 342.64186 320.665254 
L 342.74334 319.598968 
L 342.9463 325.760715 
L 343.04778 324.992753 
L 343.14926 322.597588 
L 343.25074 326.582559 
L 343.35222 320.950368 
L 343.4537 321.043592 
L 343.65666 325.619578 
L 343.75814 320.475322 
L 343.859619 320.506766 
L 343.961099 326.223642 
L 344.062579 323.677982 
L 344.164059 324.616229 
L 344.265539 320.887368 
L 344.367019 321.206382 
L 344.468499 325.492309 
L 344.772939 321.815678 
L 344.874419 325.746413 
L 344.975899 324.768135 
L 345.077378 325.000731 
L 345.178858 320.606089 
L 345.280338 321.284614 
L 345.381818 322.762769 
L 345.483298 321.949399 
L 345.584778 325.702241 
L 345.686258 323.48537 
L 345.787738 324.496343 
L 346.193658 318.747429 
L 346.295137 321.044074 
L 346.396617 320.580986 
L 346.498097 321.187104 
L 346.599577 322.715499 
L 346.701057 317.988906 
L 346.802537 318.076481 
L 346.904017 317.059167 
L 347.309937 324.565395 
L 347.411416 318.740832 
L 347.614376 324.420069 
L 347.715856 319.80967 
L 347.817336 324.494401 
L 347.918816 320.648882 
L 348.020296 321.358192 
L 348.121776 324.134746 
L 348.223256 319.18795 
L 348.426216 325.840617 
L 348.527696 321.559376 
L 348.629175 324.726483 
L 348.730655 321.6074 
L 348.832135 323.683712 
L 349.035095 321.393408 
L 349.238055 323.405195 
L 349.339535 319.103602 
L 349.542495 326.423702 
L 349.846934 320.394248 
L 349.948414 329.385324 
L 350.151374 323.302147 
L 350.252854 323.032153 
L 350.354334 327.473872 
L 350.455814 326.413943 
L 350.557294 326.476494 
L 350.658774 326.755878 
L 350.760254 328.156715 
L 350.861734 326.785315 
L 350.963214 323.79936 
L 351.064693 328.484172 
L 351.267653 324.914136 
L 351.369133 323.716007 
L 351.470613 328.493642 
L 351.572093 327.55692 
L 351.673573 327.626822 
L 351.775053 327.899786 
L 351.876533 327.525556 
L 351.978013 325.987965 
L 352.079493 329.601628 
L 352.383932 320.042955 
L 352.485412 326.530265 
L 352.586892 318.616212 
L 352.789852 326.611692 
L 352.891332 321.107539 
L 352.992812 325.692466 
L 353.094292 325.139588 
L 353.195772 325.492887 
L 353.297252 324.337695 
L 353.398732 324.565251 
L 353.500211 324.418994 
L 353.601691 325.351173 
L 353.703171 321.954118 
L 353.804651 325.898946 
L 354.007611 318.723545 
L 354.210571 325.390434 
L 354.413531 322.709592 
L 354.515011 317.269114 
L 354.61649 320.297412 
L 354.71797 314.296032 
L 355.02241 321.994824 
L 355.12389 316.998253 
L 355.22537 323.519045 
L 355.32685 315.772405 
L 355.52981 321.912402 
L 355.63129 321.047958 
L 355.73277 313.108385 
L 355.834249 322.568841 
L 355.935729 321.636806 
L 356.037209 323.376399 
L 356.138689 322.426998 
L 356.240169 322.589113 
L 356.341649 318.112499 
L 356.443129 324.717077 
L 356.646089 321.902226 
L 356.747569 320.188651 
L 356.849049 323.050548 
L 356.950529 322.973711 
L 357.052008 321.200619 
L 357.153488 323.96873 
L 357.254968 323.357138 
L 357.356448 315.0599 
L 357.559408 324.468174 
L 357.762368 321.654847 
L 357.863848 322.606897 
L 357.965328 326.627245 
L 358.066808 323.867368 
L 358.168288 326.97491 
L 358.269767 321.938324 
L 358.371247 322.296984 
L 358.574207 322.586769 
L 358.675687 323.256884 
L 358.777167 319.544523 
L 359.081607 328.054052 
L 359.183087 323.707869 
L 359.487526 326.61174 
L 359.589006 326.230737 
L 359.690486 326.774096 
L 359.791966 325.625324 
L 359.893446 326.619813 
L 359.994926 326.431551 
L 360.096406 325.614104 
L 360.197886 327.445927 
L 360.299366 321.109915 
L 360.400846 324.344372 
L 360.502326 324.092179 
L 360.603805 324.253764 
L 360.705285 322.395168 
L 360.908245 324.779805 
L 361.009725 316.681486 
L 361.111205 323.455001 
L 361.517125 320.197414 
L 361.821564 325.661792 
L 361.923044 323.816181 
L 362.024524 327.047589 
L 362.126004 322.814919 
L 362.227484 326.797787 
L 362.430444 317.643922 
L 362.734884 327.162338 
L 363.039323 321.339429 
L 363.140803 325.139701 
L 363.343763 320.452369 
L 363.546723 324.773561 
L 363.648203 324.243893 
L 363.749683 325.798194 
L 363.851163 321.492716 
L 363.952643 324.619567 
L 364.054123 323.417057 
L 364.257082 325.715435 
L 364.358562 324.639663 
L 364.460042 328.207436 
L 364.663002 322.841355 
L 364.764482 322.897694 
L 364.865962 323.873821 
L 364.967442 321.58326 
L 365.068922 324.556968 
L 365.170402 320.283641 
L 365.271882 325.145736 
L 365.373362 322.088032 
L 365.474841 324.221727 
L 365.576321 318.035021 
L 365.677801 322.94421 
L 365.779281 322.835994 
L 365.880761 321.365608 
L 365.982241 325.334993 
L 366.083721 324.388513 
L 366.185201 328.163713 
L 366.286681 327.825935 
L 366.388161 324.211309 
L 366.489641 325.365474 
L 366.6926 318.937666 
L 366.79408 319.060071 
L 366.89556 326.094977 
L 366.99704 320.152247 
L 367.09852 327.408625 
L 367.2 326.129294 
L 367.30148 322.371943 
L 367.40296 326.326208 
L 367.50444 324.265722 
L 367.7074 327.178116 
L 367.808879 324.101825 
L 368.011839 327.267119 
L 368.113319 326.821864 
L 368.214799 328.847214 
L 368.316279 324.355014 
L 368.519239 329.055299 
L 368.620719 329.340863 
L 369.026638 324.362157 
L 369.128118 327.27187 
L 369.229598 323.851911 
L 369.331078 326.320205 
L 369.432558 325.937196 
L 369.736998 320.110899 
L 369.838478 324.412782 
L 369.939958 321.012774 
L 370.041438 323.192005 
L 370.142918 319.233888 
L 370.345877 324.322254 
L 370.447357 327.469747 
L 370.548837 324.33845 
L 370.650317 325.096636 
L 370.751797 324.18757 
L 370.954757 325.260212 
L 371.056237 325.813908 
L 371.157717 327.898486 
L 371.360677 321.819515 
L 371.462156 323.918025 
L 371.563636 322.898657 
L 371.665116 327.213894 
L 371.766596 323.571724 
L 371.868076 326.412996 
L 371.969556 324.390326 
L 372.071036 326.237077 
L 372.172516 321.257921 
L 372.273996 326.70636 
L 372.375476 321.148197 
L 372.476956 327.897362 
L 372.781395 323.421615 
L 372.984355 328.757874 
L 373.085835 318.520436 
L 373.288795 326.996916 
L 373.390275 319.026846 
L 373.491755 326.334747 
L 373.694715 323.692011 
L 373.796195 327.316123 
L 373.897674 326.259532 
L 374.100634 327.397212 
L 374.202114 321.632873 
L 374.303594 327.065053 
L 374.506554 323.46147 
L 374.709514 322.254706 
L 374.810994 322.609642 
L 375.013953 315.476953 
L 375.115433 325.782624 
L 375.216913 324.087363 
L 375.318393 324.509762 
L 375.419873 320.941732 
L 375.521353 324.638828 
L 375.622833 323.335004 
L 375.825793 325.275958 
L 375.927273 321.306492 
L 376.130233 324.640819 
L 376.231712 322.56035 
L 376.333192 323.115859 
L 376.434672 325.565133 
L 376.536152 322.633751 
L 376.637632 324.646132 
L 376.840592 320.795829 
L 376.942072 324.426217 
L 377.145032 323.4533 
L 377.246512 325.44406 
L 377.347992 323.231122 
L 377.449471 325.361076 
L 377.550951 319.147629 
L 377.753911 324.802115 
L 377.855391 322.763058 
L 377.956871 323.755027 
L 378.058351 321.262464 
L 378.159831 323.829199 
L 378.261311 321.379781 
L 378.362791 324.51676 
L 378.464271 323.561452 
L 378.565751 325.476419 
L 378.66723 323.484712 
L 378.76871 324.322736 
L 378.87019 323.120033 
L 379.07315 324.930941 
L 379.17463 324.188629 
L 379.27611 325.38817 
L 379.37759 325.276792 
L 379.68203 327.114185 
L 379.78351 326.109921 
L 379.884989 321.537915 
L 380.087949 326.0657 
L 380.189429 323.060483 
L 380.290909 324.676099 
L 380.392389 317.614837 
L 380.595349 325.894917 
L 380.696829 323.862986 
L 380.899789 326.696409 
L 381.001268 326.474792 
L 381.102748 327.000929 
L 381.204228 324.673194 
L 381.407188 326.191684 
L 381.508668 326.812249 
L 381.610148 320.298825 
L 381.813108 328.079333 
L 382.016068 326.010629 
L 382.117548 328.880664 
L 382.219027 322.203054 
L 382.320507 326.149807 
L 382.421987 323.001704 
L 382.523467 324.516584 
L 382.624947 323.556556 
L 382.726427 320.547632 
L 382.827907 324.912482 
L 382.929387 322.173183 
L 383.030867 323.503074 
L 383.132347 320.839824 
L 383.233827 326.291602 
L 383.335307 326.070981 
L 383.436786 325.26973 
L 383.538266 326.692524 
L 383.639746 326.514631 
L 383.842706 325.151081 
L 383.944186 324.950282 
L 384.045666 320.535577 
L 384.147146 325.867374 
L 384.248626 325.183825 
L 384.350106 322.748098 
L 384.451586 326.129711 
L 384.553066 323.016487 
L 384.654545 326.4433 
L 384.756025 325.577332 
L 384.857505 326.612141 
L 385.060465 323.304748 
L 385.161945 327.673178 
L 385.263425 325.378684 
L 385.364905 328.607925 
L 385.466385 327.525669 
L 385.567865 324.862515 
L 385.770825 328.052014 
L 385.872304 324.292752 
L 385.973784 326.375148 
L 386.075264 324.279895 
L 386.176744 325.397432 
L 386.379704 321.41925 
L 386.582664 325.388154 
L 386.684144 324.952594 
L 386.887104 326.200224 
L 386.988584 321.678121 
L 387.191543 326.190031 
L 387.293023 326.693889 
L 387.394503 325.263855 
L 387.495983 326.23926 
L 387.597463 324.069081 
L 387.698943 328.134243 
L 387.800423 324.977617 
L 387.901903 327.310489 
L 388.003383 324.682022 
L 388.104863 327.836336 
L 388.206342 327.296845 
L 388.307822 318.194664 
L 388.612262 326.244171 
L 388.713742 323.175441 
L 388.916702 325.840633 
L 389.018182 323.673135 
L 389.119662 324.199496 
L 389.322622 327.035005 
L 389.424101 323.027434 
L 389.627061 326.72575 
L 389.728541 326.812907 
L 389.830021 325.910519 
L 389.931501 322.620653 
L 390.032981 324.656228 
L 390.134461 321.860878 
L 390.337421 324.515862 
L 390.438901 324.882836 
L 390.540381 326.17703 
L 391.04778 321.308579 
L 391.25074 326.06432 
L 391.35222 321.57395 
L 391.55518 326.880835 
L 391.75814 320.484808 
L 391.859619 320.584116 
L 391.961099 324.528943 
L 392.164059 318.988323 
L 392.367019 324.959207 
L 392.468499 320.357572 
L 392.569979 321.926751 
L 392.671459 325.717971 
L 392.772939 322.137999 
L 392.975899 325.009992 
L 393.077378 324.181342 
L 393.178858 326.071799 
L 393.280338 325.231352 
L 393.381818 322.761758 
L 393.483298 326.379786 
L 393.584778 322.453707 
L 393.686258 325.720443 
L 393.787738 323.999227 
L 393.889218 324.145372 
L 394.092178 327.32418 
L 394.193658 323.490169 
L 394.295137 329.728062 
L 394.498097 325.381028 
L 394.599577 327.869016 
L 394.802537 322.901466 
L 395.005497 329.715895 
L 395.106977 329.559542 
L 395.208457 328.038226 
L 395.309937 328.898497 
L 395.411416 324.301966 
L 395.512896 328.10564 
L 395.614376 324.888486 
L 395.715856 328.719383 
L 395.817336 324.818343 
L 395.918816 327.145886 
L 396.020296 326.771961 
L 396.121776 327.25675 
L 396.223256 322.309039 
L 396.324736 327.194376 
L 396.426216 324.003144 
L 396.527696 324.200411 
L 396.730655 319.823185 
L 396.832135 321.246766 
L 396.933615 325.432327 
L 397.035095 325.383114 
L 397.339535 319.33525 
L 397.441015 324.438223 
L 397.542495 323.453252 
L 397.745455 325.590927 
L 397.846934 321.563485 
L 397.948414 324.566069 
L 398.151374 322.628952 
L 398.252854 319.547236 
L 398.455814 325.557605 
L 398.557294 324.63817 
L 398.658774 321.622777 
L 398.861734 326.61243 
L 398.963214 325.649946 
L 399.064693 321.956157 
L 399.267653 325.652563 
L 399.369133 326.597021 
L 399.470613 326.227141 
L 399.572093 323.14817 
L 399.775053 325.803844 
L 399.876533 323.046888 
L 399.978013 325.340868 
L 400.079493 325.277755 
L 400.180973 325.115817 
L 400.282452 325.271913 
L 400.383932 320.293143 
L 400.485412 325.339295 
L 400.586892 322.886763 
L 400.688372 325.509115 
L 400.789852 324.160139 
L 400.992812 325.407014 
L 401.094292 324.029837 
L 401.195772 314.851156 
L 401.398732 323.989886 
L 401.500211 322.660845 
L 401.703171 327.303218 
L 401.906131 321.71613 
L 402.007611 325.723444 
L 402.109091 325.069863 
L 402.210571 327.40328 
L 402.312051 320.602895 
L 402.515011 326.845394 
L 402.61649 326.157078 
L 402.71797 327.102163 
L 402.81945 320.584356 
L 402.92093 327.205242 
L 403.02241 324.231293 
L 403.12389 325.714744 
L 403.32685 324.360247 
L 403.52981 327.870894 
L 403.63129 328.022673 
L 404.037209 322.087117 
L 404.138689 325.566529 
L 404.240169 324.613452 
L 404.341649 327.223653 
L 404.544609 321.064314 
L 404.646089 329.090451 
L 404.747569 324.664333 
L 404.849049 326.762924 
L 405.052008 324.750897 
L 405.153488 325.901017 
L 405.254968 322.838514 
L 405.356448 324.744877 
L 405.457928 324.615891 
L 405.660888 323.569236 
L 405.863848 325.081162 
L 405.965328 324.374131 
L 406.066808 320.745316 
L 406.168288 320.795347 
L 406.371247 326.67275 
L 406.472727 326.572463 
L 406.574207 326.75904 
L 406.675687 324.85335 
L 406.878647 327.799756 
L 406.980127 327.174729 
L 407.081607 327.392927 
L 407.183087 326.676297 
L 407.386047 328.010731 
L 407.487526 323.580087 
L 407.690486 325.422937 
L 407.791966 326.125153 
L 407.893446 328.085785 
L 408.096406 324.916126 
L 408.197886 327.726146 
L 408.299366 327.329317 
L 408.400846 328.433434 
L 408.502326 324.591863 
L 408.603805 329.525546 
L 408.705285 325.432503 
L 408.806765 328.031533 
L 408.908245 327.029098 
L 409.009725 320.300719 
L 409.111205 321.743192 
L 409.314165 328.517831 
L 409.415645 322.501988 
L 409.517125 327.184504 
L 409.618605 325.518633 
L 409.720085 328.155607 
L 409.821564 327.146158 
L 409.923044 327.81234 
L 410.126004 326.55073 
L 410.227484 328.730314 
L 410.328964 325.646463 
L 410.430444 328.322859 
L 410.531924 327.601863 
L 410.633404 327.90542 
L 410.734884 327.782052 
L 410.836364 327.183365 
L 410.937844 327.974375 
L 411.039323 329.797065 
L 411.242283 325.404558 
L 411.445243 326.911749 
L 411.546723 324.992464 
L 411.648203 327.579408 
L 411.749683 323.835587 
L 411.851163 327.156704 
L 411.952643 325.2049 
L 412.054123 326.254364 
L 412.257082 323.485867 
L 412.358562 326.499158 
L 412.460042 319.843634 
L 412.561522 326.108348 
L 412.764482 322.09418 
L 412.865962 324.97155 
L 413.068922 321.28967 
L 413.271882 324.136159 
L 413.373362 323.463236 
L 413.474841 320.570665 
L 413.880761 323.618256 
L 414.083721 321.015037 
L 414.185201 322.271576 
L 414.286681 321.571061 
L 414.388161 321.61724 
L 414.489641 318.152546 
L 414.591121 321.972513 
L 414.6926 316.796989 
L 414.89556 321.904473 
L 414.99704 321.196318 
L 415.09852 323.078878 
L 415.2 317.510939 
L 415.30148 321.409941 
L 415.40296 320.485081 
L 415.50444 321.825775 
L 415.60592 324.660561 
L 415.808879 323.980351 
L 415.910359 325.023138 
L 416.011839 322.972042 
L 416.113319 326.232085 
L 416.214799 321.335833 
L 416.316279 326.268489 
L 416.417759 324.636661 
L 416.519239 321.1342 
L 416.722199 326.514647 
L 416.925159 327.441674 
L 417.026638 327.339654 
L 417.229598 324.412702 
L 417.331078 328.449694 
L 417.534038 326.879069 
L 417.635518 328.380209 
L 417.736998 325.149716 
L 417.838478 326.611932 
L 418.041438 324.50981 
L 418.244397 328.195462 
L 418.345877 321.035358 
L 418.548837 331.666784 
L 418.650317 325.502149 
L 418.853277 331.475199 
L 418.954757 331.127855 
L 419.056237 328.249891 
L 419.157717 330.934858 
L 419.259197 329.169293 
L 419.360677 330.855726 
L 419.462156 330.095485 
L 419.563636 331.669994 
L 419.868076 326.936853 
L 419.969556 328.266568 
L 420.071036 324.86778 
L 420.172516 327.835309 
L 420.273996 326.238152 
L 420.375476 327.43604 
L 420.476956 326.698207 
L 420.679915 324.002614 
L 420.882875 327.316042 
L 420.984355 326.479431 
L 421.085835 323.995295 
L 421.187315 326.523459 
L 421.288795 325.994546 
L 421.390275 322.094228 
L 421.491755 325.304448 
L 421.796195 322.493176 
L 421.897674 324.121343 
L 421.999154 322.794036 
L 422.100634 317.598369 
L 422.202114 324.98025 
L 422.303594 323.743165 
L 422.405074 325.021517 
L 422.608034 319.592756 
L 422.709514 325.235926 
L 422.810994 322.301575 
L 422.912474 324.656228 
L 423.013953 324.535171 
L 423.115433 324.952481 
L 423.216913 324.123189 
L 423.318393 325.898143 
L 423.419873 323.17337 
L 423.521353 326.076278 
L 423.622833 325.254449 
L 423.724313 326.428405 
L 423.825793 324.455863 
L 423.927273 326.158298 
L 424.028753 321.280874 
L 424.130233 325.052319 
L 424.231712 321.693819 
L 424.333192 323.829359 
L 424.434672 320.585785 
L 424.637632 321.683322 
L 424.739112 325.434253 
L 424.942072 323.89435 
L 425.043552 324.575363 
L 425.246512 320.837176 
L 425.347992 324.092789 
L 425.652431 320.205713 
L 425.753911 320.25698 
L 425.956871 324.216783 
L 426.058351 320.612751 
L 426.159831 326.379722 
L 426.261311 324.77958 
L 426.464271 325.946617 
L 426.565751 326.059488 
L 426.66723 325.256921 
L 426.76871 319.966858 
L 426.97167 328.596673 
L 427.07315 329.707918 
L 427.17463 326.444263 
L 427.37759 329.27011 
L 427.47907 325.854533 
L 427.58055 326.659122 
L 427.68203 325.528681 
L 427.78351 327.429989 
L 427.884989 323.956114 
L 428.087949 326.215103 
L 428.189429 320.604147 
L 428.392389 327.930219 
L 428.493869 326.553234 
L 428.595349 328.347288 
L 428.798309 324.613388 
L 428.899789 325.221384 
L 429.001268 329.135073 
L 429.102748 329.082201 
L 429.204228 329.779312 
L 429.407188 327.608909 
L 429.508668 329.679058 
L 429.610148 328.115624 
L 429.711628 331.786075 
L 429.813108 331.069365 
L 429.914588 329.210175 
L 430.016068 331.734776 
L 430.117548 329.681096 
L 430.219027 329.869118 
L 430.320507 331.607716 
L 430.421987 322.397111 
L 430.624947 332.91 
L 430.726427 330.586454 
L 430.929387 331.627973 
L 431.030867 331.319472 
L 431.132347 329.369851 
L 431.233827 330.614351 
L 431.335307 326.213819 
L 431.436786 327.944681 
L 431.538266 325.310098 
L 431.639746 326.924237 
L 431.842706 324.142451 
L 431.944186 324.020704 
L 432.045666 326.814817 
L 432.147146 323.293881 
L 432.248626 325.962636 
L 432.451586 322.360434 
L 432.553066 324.355255 
L 432.654545 324.1164 
L 432.857505 324.38145 
L 432.958985 321.132001 
L 433.060465 324.73483 
L 433.161945 322.774631 
L 433.263425 323.107882 
L 433.364905 324.993572 
L 433.466385 322.349808 
L 433.770825 326.329675 
L 433.973784 324.89176 
L 434.075264 321.331114 
L 434.176744 324.920684 
L 434.278224 321.57387 
L 434.481184 324.597015 
L 434.582664 324.155067 
L 434.684144 321.925676 
L 434.785624 324.481223 
L 434.887104 323.975151 
L 434.988584 321.269639 
L 435.191543 326.053822 
L 435.293023 326.049874 
L 435.394503 325.432503 
L 435.495983 326.381985 
L 435.597463 326.29722 
L 435.698943 325.627619 
L 435.901903 326.157095 
L 436.206342 321.096384 
L 436.307822 321.872419 
L 436.409302 324.742983 
L 436.612262 322.96559 
L 436.713742 322.993695 
L 436.815222 325.368379 
L 436.916702 323.17589 
L 437.018182 324.649149 
L 437.119662 323.264155 
L 437.221142 326.118845 
L 437.322622 321.893943 
L 437.424101 324.268596 
L 437.525581 324.116464 
L 437.627061 319.910663 
L 437.830021 323.047321 
L 437.931501 324.360407 
L 438.032981 324.032918 
L 438.134461 321.706515 
L 438.235941 322.296053 
L 438.337421 324.40901 
L 438.438901 322.7963 
L 438.64186 325.781372 
L 438.84482 323.884254 
L 438.9463 325.27554 
L 439.04778 324.97667 
L 439.14926 319.413242 
L 439.25074 325.022753 
L 439.35222 322.11755 
L 439.4537 324.270265 
L 439.55518 321.897282 
L 439.65666 322.412022 
L 439.859619 325.008082 
L 439.961099 319.075496 
L 440.062579 324.824876 
L 440.164059 322.965895 
L 440.367019 326.420042 
L 440.468499 325.342537 
L 440.569979 325.98713 
L 440.671459 327.871167 
L 440.772939 327.720047 
L 440.874419 327.547627 
L 441.077378 324.21513 
L 441.178858 325.094645 
L 441.280338 325.955686 
L 441.381818 325.756429 
L 441.483298 328.525423 
L 441.584778 328.504011 
L 441.686258 326.629332 
L 441.787738 329.994444 
L 441.889218 329.798092 
L 441.990698 326.198956 
L 442.193658 330.580355 
L 442.295137 329.294347 
L 442.498097 330.253588 
L 442.599577 326.259853 
L 442.701057 329.75538 
L 442.802537 329.490346 
L 443.005497 330.323795 
L 443.106977 330.153606 
L 443.208457 330.252561 
L 443.309937 329.78493 
L 443.411416 329.820885 
L 443.512896 329.44932 
L 443.614376 324.756819 
L 443.817336 327.460967 
L 444.020296 325.245509 
L 444.223256 328.439229 
L 444.324736 328.095592 
L 444.426216 325.420224 
L 444.527696 326.398341 
L 444.629175 324.63244 
L 444.832135 326.808959 
L 444.933615 323.669379 
L 445.035095 326.281297 
L 445.136575 322.864372 
L 445.238055 326.087289 
L 445.339535 325.904532 
L 445.441015 322.267483 
L 445.542495 326.161557 
L 445.643975 321.735889 
L 445.745455 326.171316 
L 445.846934 322.399615 
L 445.948414 325.621424 
L 446.151374 321.551158 
L 446.252854 324.508895 
L 446.354334 321.346539 
L 446.455814 321.567193 
L 446.557294 324.214247 
L 446.658774 323.35839 
L 446.760254 324.162562 
L 446.963214 320.907319 
L 447.064693 323.844255 
L 447.166173 318.390294 
L 447.369133 324.234166 
L 447.470613 322.175911 
L 447.673573 325.116731 
L 447.876533 326.240656 
L 447.978013 325.750667 
L 448.079493 323.248794 
L 448.180973 324.806273 
L 448.282452 323.892488 
L 448.383932 326.657822 
L 448.485412 324.168453 
L 448.586892 326.732475 
L 448.789852 320.880594 
L 448.992812 327.731074 
L 449.094292 328.247275 
L 449.195772 325.009414 
L 449.398732 326.913499 
L 449.500211 328.888112 
L 449.601691 327.943108 
L 449.703171 329.740004 
L 449.804651 326.54752 
L 450.007611 328.974081 
L 450.109091 328.819654 
L 450.210571 329.335293 
L 450.413531 327.980458 
L 450.515011 328.872077 
L 450.61649 325.6216 
L 450.71797 328.920326 
L 450.81945 318.449956 
L 451.02241 327.766803 
L 451.12389 327.408817 
L 451.22537 328.165992 
L 451.32685 328.058386 
L 451.52981 325.637411 
L 451.63129 328.061532 
L 451.73277 326.735268 
L 451.834249 327.922723 
L 451.935729 327.07112 
L 452.138689 328.027408 
L 452.240169 327.737687 
L 452.443129 325.432905 
L 452.646089 327.24431 
L 452.747569 325.926152 
L 452.849049 327.096577 
L 452.950529 322.432006 
L 453.052008 325.793154 
L 453.153488 322.75065 
L 453.254968 322.914194 
L 453.356448 322.151723 
L 453.457928 318.213508 
L 453.559408 324.700111 
L 453.660888 323.877962 
L 453.762368 321.340295 
L 453.965328 325.382745 
L 454.066808 322.021902 
L 454.269767 325.791003 
L 454.371247 326.090226 
L 454.675687 320.198361 
L 454.777167 324.580387 
L 454.878647 322.319135 
L 454.980127 325.250437 
L 455.081607 320.313415 
L 455.183087 325.854613 
L 455.284567 321.148181 
L 455.487526 326.759955 
L 455.690486 324.942995 
L 455.791966 325.415618 
L 455.893446 323.59182 
L 455.994926 323.710405 
L 456.197886 327.682247 
L 456.299366 326.754353 
L 456.400846 327.191663 
L 456.502326 324.830189 
L 456.603805 325.364302 
L 456.806765 328.04837 
L 456.908245 320.027691 
L 457.009725 327.680898 
L 457.111205 324.568798 
L 457.212685 327.945242 
L 457.314165 327.868503 
L 457.415645 325.495712 
L 457.517125 327.577353 
L 457.720085 324.08258 
L 458.024524 329.399561 
L 458.126004 329.580858 
L 458.227484 328.740731 
L 458.430444 330.386587 
L 458.531924 327.999993 
L 458.633404 329.472401 
L 458.734884 328.657972 
L 458.937844 330.702856 
L 459.039323 327.697415 
L 459.140803 327.846256 
L 459.343763 330.681123 
L 459.546723 327.307054 
L 459.749683 330.061441 
L 459.851163 330.989945 
L 459.952643 330.51477 
L 460.054123 323.434007 
L 460.257082 330.234102 
L 460.358562 327.82608 
L 460.561522 330.051233 
L 460.663002 330.890396 
L 460.865962 327.140605 
L 460.967442 327.949673 
L 461.170402 327.174023 
L 461.271882 324.780382 
L 461.474841 326.70506 
L 461.677801 326.889743 
L 461.880761 322.579338 
L 461.982241 325.153954 
L 462.083721 320.553025 
L 462.185201 320.798124 
L 462.388161 325.073779 
L 462.489641 325.500303 
L 462.591121 321.657046 
L 462.6926 324.948453 
L 462.89556 320.60999 
L 462.99704 324.948886 
L 463.09852 322.175703 
L 463.2 324.714268 
L 463.30148 324.285481 
L 463.60592 325.462069 
L 463.7074 324.963396 
L 464.011839 326.350269 
L 464.113319 325.317578 
L 464.214799 323.032715 
L 464.316279 323.68941 
L 464.417759 321.663001 
L 464.519239 326.130049 
L 464.620719 322.555984 
L 464.823679 327.111841 
L 464.925159 326.872649 
L 465.026638 327.874538 
L 465.229598 324.822532 
L 465.331078 327.085742 
L 465.432558 326.981411 
L 465.534038 326.507456 
L 465.635518 327.346283 
L 465.736998 325.953327 
L 465.838478 326.146388 
L 465.939958 325.891065 
L 466.041438 326.018558 
L 466.142918 322.821756 
L 466.345877 325.069477 
L 466.447357 321.734252 
L 466.548837 324.182466 
L 466.650317 319.796396 
L 466.853277 324.836994 
L 466.954757 322.804742 
L 467.056237 325.567669 
L 467.360677 321.053448 
L 467.563636 326.725285 
L 467.665116 323.010645 
L 467.868076 327.669117 
L 468.172516 324.24293 
L 468.273996 323.476285 
L 468.375476 323.520843 
L 468.476956 325.448041 
L 468.578436 324.909738 
L 468.679915 325.535743 
L 468.984355 320.478548 
L 469.187315 327.44726 
L 469.288795 327.352141 
L 469.593235 323.680101 
L 469.694715 323.273753 
L 469.796195 326.090884 
L 469.897674 321.616036 
L 469.999154 324.927394 
L 470.100634 323.698094 
L 470.202114 326.160401 
L 470.303594 326.0014 
L 470.405074 325.456981 
L 470.506554 323.341408 
L 470.608034 326.122232 
L 470.912474 320.945392 
L 471.013953 325.013427 
L 471.115433 324.954712 
L 471.216913 323.339498 
L 471.419873 324.911904 
L 471.521353 325.117422 
L 471.724313 324.596646 
L 471.825793 323.701481 
L 471.927273 324.37962 
L 472.028753 323.650342 
L 472.231712 321.180202 
L 472.434672 325.192412 
L 472.536152 322.147341 
L 472.637632 325.006878 
L 472.739112 324.075261 
L 472.840592 325.847807 
L 472.942072 320.430283 
L 473.145032 326.676233 
L 473.246512 324.537803 
L 473.347992 326.382611 
L 473.449471 326.18093 
L 473.855391 330.899096 
L 473.956871 330.313811 
L 474.159831 327.268146 
L 474.362791 330.525653 
L 474.565751 331.1458 
L 474.76871 329.365983 
L 474.87019 330.6687 
L 474.97167 325.497911 
L 475.07315 330.719774 
L 475.17463 330.642472 
L 475.27611 325.981207 
L 475.47907 331.480528 
L 475.58055 331.594041 
L 475.78351 331.199988 
L 475.884989 330.759099 
L 475.986469 331.690572 
L 476.087949 327.727896 
L 476.189429 330.6739 
L 476.290909 328.972219 
L 476.392389 332.377748 
L 476.595349 331.738115 
L 476.798309 327.879193 
L 476.899789 330.586839 
L 477.001268 330.168791 
L 477.102748 331.244225 
L 477.305708 330.645169 
L 477.407188 325.364607 
L 477.508668 327.825277 
L 477.610148 323.889824 
L 477.711628 329.811639 
L 477.813108 328.873762 
L 477.914588 326.031752 
L 478.016068 326.078733 
L 478.117548 325.705964 
L 478.219027 328.729479 
L 478.421987 327.819435 
L 478.523467 328.036669 
L 478.624947 324.301452 
L 478.726427 327.561029 
L 478.827907 324.693386 
L 479.030867 326.648047 
L 479.335307 325.634554 
L 479.436786 326.063164 
L 479.538266 324.386811 
L 479.639746 325.4165 
L 479.741226 324.667447 
L 479.842706 324.94505 
L 479.944186 323.999821 
L 480.045666 318.48522 
L 480.248626 324.743754 
L 480.350106 324.698313 
L 480.451586 324.095116 
L 480.553066 321.540532 
L 480.756025 324.307776 
L 480.857505 320.680293 
L 480.958985 323.990576 
L 481.060465 321.849803 
L 481.161945 323.496477 
L 481.364905 321.253427 
L 481.466385 323.755942 
L 481.669345 318.954921 
L 481.770825 319.212171 
L 481.973784 325.370643 
L 482.075264 324.34556 
L 482.176744 325.083137 
L 482.278224 322.832206 
L 482.379704 325.842061 
L 482.481184 322.921417 
L 482.582664 326.249211 
L 482.785624 324.064635 
L 482.887104 324.989447 
L 483.090063 328.269521 
L 483.293023 328.344544 
L 483.394503 329.587647 
L 483.597463 329.050468 
L 483.698943 324.482684 
L 483.901903 331.159765 
L 484.003383 332.115892 
L 484.104863 325.063282 
L 484.307822 331.181241 
L 484.409302 328.236713 
L 484.612262 332.17207 
L 484.713742 331.003107 
L 484.815222 327.643259 
L 485.018182 330.172851 
L 485.221142 330.657945 
L 485.322622 329.94727 
L 485.424101 323.266883 
L 485.525581 326.291955 
L 485.627061 323.099616 
L 485.830021 329.432867 
L 485.931501 326.253144 
L 486.134461 328.677121 
L 486.235941 325.474027 
L 486.337421 325.575662 
L 486.438901 327.682118 
L 486.540381 327.566727 
L 486.64186 327.69329 
L 486.74334 324.96712 
L 486.84482 325.596031 
L 487.04778 327.181551 
L 487.14926 327.244054 
L 487.25074 324.932819 
L 487.35222 327.414612 
L 487.4537 324.932819 
L 487.65666 327.802549 
L 487.859619 327.740046 
L 488.062579 322.643879 
L 488.164059 328.50836 
L 488.468499 325.164901 
L 488.569979 328.798563 
L 488.671459 327.923156 
L 488.772939 324.871311 
L 488.874419 327.811554 
L 488.975899 327.39527 
L 489.077378 324.126881 
L 489.178858 324.650979 
L 489.381818 327.469908 
L 489.483298 326.75392 
L 489.584778 327.172482 
L 489.686258 326.084817 
L 489.787738 326.947928 
L 489.889218 326.597262 
L 489.990698 326.924381 
L 490.092178 324.540981 
L 490.193658 327.008762 
L 490.396617 324.66085 
L 490.498097 324.42039 
L 490.599577 321.737847 
L 490.701057 326.67474 
L 490.802537 323.731063 
L 490.904017 326.535915 
L 491.005497 326.416319 
L 491.208457 325.77004 
L 491.309937 325.404302 
L 491.411416 325.974305 
L 491.512896 319.66749 
L 491.715856 326.631466 
L 491.817336 324.102098 
L 491.918816 324.640305 
L 492.121776 327.45482 
L 492.223256 327.996012 
L 492.324736 322.387095 
L 492.527696 327.374805 
L 492.629175 326.810837 
L 492.730655 326.988377 
L 492.832135 323.77623 
L 493.035095 326.203065 
L 493.136575 323.224814 
L 493.238055 325.740875 
L 493.542495 324.482251 
L 493.643975 321.191855 
L 493.745455 323.961941 
L 493.846934 321.741362 
L 493.948414 324.134923 
L 494.049894 323.906388 
L 494.354334 325.382055 
L 494.455814 325.207725 
L 494.658774 326.505691 
L 494.760254 321.733963 
L 494.861734 327.457741 
L 494.963214 327.183028 
L 495.064693 328.592709 
L 495.166173 325.913296 
L 495.369133 328.883489 
L 495.470613 326.160979 
L 495.673573 328.989538 
L 495.775053 326.070146 
L 495.876533 327.847492 
L 495.978013 327.720913 
L 496.079493 327.785904 
L 496.180973 322.650653 
L 496.383932 327.576181 
L 496.485412 326.702685 
L 496.688372 328.295412 
L 496.789852 328.10991 
L 496.891332 323.360076 
L 497.094292 329.465627 
L 497.195772 329.320414 
L 497.297252 328.285444 
L 497.500211 323.175826 
L 497.703171 329.950673 
L 497.804651 329.686682 
L 498.109091 330.994182 
L 498.109091 330.994182 
" style="fill:none;stroke:#4c72b0;stroke-linecap:round;stroke-width:1.75;"/>
   </g>
   <g id="patch_3">
    <path d="M 72 346.5 
L 72 47.52 
" style="fill:none;"/>
   </g>
   <g id="patch_4">
    <path d="M 518.4 346.5 
L 518.4 47.52 
" style="fill:none;"/>
   </g>
   <g id="patch_5">
    <path d="M 72 346.5 
L 518.4 346.5 
" style="fill:none;"/>
   </g>
   <g id="patch_6">
    <path d="M 72 47.52 
L 518.4 47.52 
" style="fill:none;"/>
   </g>
  </g>
 </g>
 <defs>
  <clipPath id="pc58d48cb66">
   <rect height="298.98" width="446.4" x="72" y="47.52"/>
  </clipPath>
 </defs>
</svg>
